%TF.GenerationSoftware,KiCad,Pcbnew,(5.1.10)-1*%
%TF.CreationDate,2021-10-11T13:20:53+02:00*%
%TF.ProjectId,Fuzz,46757a7a-2e6b-4696-9361-645f70636258,rev?*%
%TF.SameCoordinates,Original*%
%TF.FileFunction,Copper,L1,Top*%
%TF.FilePolarity,Positive*%
%FSLAX46Y46*%
G04 Gerber Fmt 4.6, Leading zero omitted, Abs format (unit mm)*
G04 Created by KiCad (PCBNEW (5.1.10)-1) date 2021-10-11 13:20:53*
%MOMM*%
%LPD*%
G01*
G04 APERTURE LIST*
%TA.AperFunction,ComponentPad*%
%ADD10C,1.600000*%
%TD*%
%TA.AperFunction,ComponentPad*%
%ADD11R,1.600000X1.600000*%
%TD*%
%TA.AperFunction,ComponentPad*%
%ADD12O,2.720000X3.240000*%
%TD*%
%TA.AperFunction,ComponentPad*%
%ADD13C,1.800000*%
%TD*%
%TA.AperFunction,ComponentPad*%
%ADD14R,1.800000X1.800000*%
%TD*%
%TA.AperFunction,ComponentPad*%
%ADD15O,1.200000X1.200000*%
%TD*%
%TA.AperFunction,ComponentPad*%
%ADD16C,1.400000*%
%TD*%
%TA.AperFunction,ComponentPad*%
%ADD17O,1.700000X1.700000*%
%TD*%
%TA.AperFunction,ComponentPad*%
%ADD18R,1.700000X1.700000*%
%TD*%
%TA.AperFunction,ComponentPad*%
%ADD19C,3.000000*%
%TD*%
%TA.AperFunction,ComponentPad*%
%ADD20C,1.700000*%
%TD*%
%TA.AperFunction,ViaPad*%
%ADD21C,0.800000*%
%TD*%
%TA.AperFunction,Conductor*%
%ADD22C,0.500000*%
%TD*%
%TA.AperFunction,Conductor*%
%ADD23C,0.250000*%
%TD*%
%TA.AperFunction,Conductor*%
%ADD24C,0.254000*%
%TD*%
%TA.AperFunction,Conductor*%
%ADD25C,0.100000*%
%TD*%
G04 APERTURE END LIST*
D10*
%TO.P,C1,2*%
%TO.N,Net-(C1-Pad2)*%
X67060000Y-77029999D03*
D11*
%TO.P,C1,1*%
%TO.N,Net-(C1-Pad1)*%
X67060000Y-82029999D03*
%TD*%
D12*
%TO.P,Fuzz1,MP*%
%TO.N,GND*%
X76685001Y-69080000D03*
X86285001Y-69080000D03*
D13*
%TO.P,Fuzz1,3*%
%TO.N,Net-(Fuzz1-Pad3)*%
X83985001Y-76580000D03*
%TO.P,Fuzz1,2*%
%TO.N,Net-(C2-Pad2)*%
X81485001Y-76580000D03*
D14*
%TO.P,Fuzz1,1*%
%TO.N,GND*%
X78985001Y-76580000D03*
%TD*%
D12*
%TO.P,Gain1,MP*%
%TO.N,GND*%
X65554999Y-89890000D03*
X55954999Y-89890000D03*
D13*
%TO.P,Gain1,3*%
%TO.N,Net-(C1-Pad1)*%
X58254999Y-82390000D03*
%TO.P,Gain1,2*%
%TO.N,EFX_IN*%
X60754999Y-82390000D03*
D14*
%TO.P,Gain1,1*%
X63254999Y-82390000D03*
%TD*%
D15*
%TO.P,Q2,3*%
%TO.N,Net-(Bias1-Pad1)*%
X70020000Y-84582000D03*
%TO.P,Q2,2*%
%TO.N,Net-(Q1-Pad3)*%
X71120000Y-85682000D03*
%TO.P,Q2,1*%
%TO.N,Net-(Fuzz1-Pad3)*%
X72220000Y-84582000D03*
%TD*%
%TO.P,Q1,3*%
%TO.N,Net-(Q1-Pad3)*%
X70020000Y-74422000D03*
%TO.P,Q1,2*%
%TO.N,Net-(C1-Pad2)*%
X71120000Y-75522000D03*
%TO.P,Q1,1*%
%TO.N,GND*%
X72220000Y-74422000D03*
%TD*%
D16*
%TO.P,J9,1*%
%TO.N,EFX_OUT*%
X58730000Y-132730000D03*
%TD*%
%TO.P,J8,1*%
%TO.N,LED+*%
X83390000Y-135540000D03*
%TD*%
%TO.P,J7,1*%
%TO.N,EFX_IN*%
X58730000Y-129920000D03*
%TD*%
%TO.P,J6,1*%
%TO.N,OUT*%
X83390000Y-132730000D03*
%TD*%
%TO.P,J5,1*%
%TO.N,GND*%
X58730000Y-135540000D03*
%TD*%
%TO.P,J4,1*%
%TO.N,IN*%
X84505000Y-129945000D03*
%TD*%
D17*
%TO.P,J3,2*%
%TO.N,GND*%
X72410000Y-66270000D03*
D18*
%TO.P,J3,1*%
%TO.N,Net-(D1-Pad1)*%
X69870000Y-66270000D03*
%TD*%
D19*
%TO.P,J2,RN*%
%TO.N,Net-(J2-PadRN)*%
X65380000Y-123920000D03*
%TO.P,J2,R*%
%TO.N,Net-(J2-PadR)*%
X65380000Y-112490000D03*
%TO.P,J2,TN*%
%TO.N,OUT*%
X71730000Y-123920000D03*
%TO.P,J2,G*%
%TO.N,GND*%
X59030000Y-123920000D03*
%TO.P,J2,S*%
X59030000Y-112490000D03*
%TO.P,J2,T*%
%TO.N,OUT*%
X71730000Y-112490000D03*
%TD*%
%TO.P,J1,RN*%
%TO.N,Net-(J1-PadRN)*%
X76840000Y-95860000D03*
%TO.P,J1,R*%
%TO.N,Net-(J1-PadR)*%
X76840000Y-107290000D03*
%TO.P,J1,TN*%
%TO.N,IN*%
X70490000Y-95860000D03*
%TO.P,J1,G*%
%TO.N,GND*%
X83190000Y-95860000D03*
%TO.P,J1,S*%
X83190000Y-107290000D03*
%TO.P,J1,T*%
%TO.N,IN*%
X70490000Y-107290000D03*
%TD*%
%TO.P,R2,1*%
%TO.N,Net-(D1-Pad1)*%
%TA.AperFunction,SMDPad,CuDef*%
G36*
G01*
X69750000Y-69150000D02*
X70300000Y-69150000D01*
G75*
G02*
X70500000Y-69350000I0J-200000D01*
G01*
X70500000Y-69750000D01*
G75*
G02*
X70300000Y-69950000I-200000J0D01*
G01*
X69750000Y-69950000D01*
G75*
G02*
X69550000Y-69750000I0J200000D01*
G01*
X69550000Y-69350000D01*
G75*
G02*
X69750000Y-69150000I200000J0D01*
G01*
G37*
%TD.AperFunction*%
%TO.P,R2,2*%
%TO.N,Net-(Q1-Pad3)*%
%TA.AperFunction,SMDPad,CuDef*%
G36*
G01*
X69750000Y-70800000D02*
X70300000Y-70800000D01*
G75*
G02*
X70500000Y-71000000I0J-200000D01*
G01*
X70500000Y-71400000D01*
G75*
G02*
X70300000Y-71600000I-200000J0D01*
G01*
X69750000Y-71600000D01*
G75*
G02*
X69550000Y-71400000I0J200000D01*
G01*
X69550000Y-71000000D01*
G75*
G02*
X69750000Y-70800000I200000J0D01*
G01*
G37*
%TD.AperFunction*%
%TD*%
%TO.P,R3,2*%
%TO.N,Net-(C1-Pad2)*%
%TA.AperFunction,SMDPad,CuDef*%
G36*
G01*
X71395000Y-79105000D02*
X70845000Y-79105000D01*
G75*
G02*
X70645000Y-78905000I0J200000D01*
G01*
X70645000Y-78505000D01*
G75*
G02*
X70845000Y-78305000I200000J0D01*
G01*
X71395000Y-78305000D01*
G75*
G02*
X71595000Y-78505000I0J-200000D01*
G01*
X71595000Y-78905000D01*
G75*
G02*
X71395000Y-79105000I-200000J0D01*
G01*
G37*
%TD.AperFunction*%
%TO.P,R3,1*%
%TO.N,Net-(Fuzz1-Pad3)*%
%TA.AperFunction,SMDPad,CuDef*%
G36*
G01*
X71395000Y-80755000D02*
X70845000Y-80755000D01*
G75*
G02*
X70645000Y-80555000I0J200000D01*
G01*
X70645000Y-80155000D01*
G75*
G02*
X70845000Y-79955000I200000J0D01*
G01*
X71395000Y-79955000D01*
G75*
G02*
X71595000Y-80155000I0J-200000D01*
G01*
X71595000Y-80555000D01*
G75*
G02*
X71395000Y-80755000I-200000J0D01*
G01*
G37*
%TD.AperFunction*%
%TD*%
D20*
%TO.P,J10,1*%
%TO.N,Net-(D1-Pad1)*%
X86375000Y-132730000D03*
%TD*%
%TO.P,J11,1*%
%TO.N,LED+*%
X86425000Y-135540000D03*
%TD*%
D12*
%TO.P,Bias1,MP*%
%TO.N,GND*%
X86285001Y-89890000D03*
X76685001Y-89890000D03*
D13*
%TO.P,Bias1,3*%
%TO.N,Net-(Bias1-Pad3)*%
X78985001Y-82390000D03*
%TO.P,Bias1,2*%
%TO.N,Net-(Bias1-Pad1)*%
X81485001Y-82390000D03*
D14*
%TO.P,Bias1,1*%
X83985001Y-82390000D03*
%TD*%
%TO.P,Vol1,1*%
%TO.N,GND*%
X58254999Y-76580000D03*
D13*
%TO.P,Vol1,2*%
%TO.N,EFX_OUT*%
X60754999Y-76580000D03*
%TO.P,Vol1,3*%
%TO.N,Net-(C3-Pad1)*%
X63254999Y-76580000D03*
D12*
%TO.P,Vol1,MP*%
%TO.N,GND*%
X65554999Y-69080000D03*
X55954999Y-69080000D03*
%TD*%
D21*
%TO.N,Net-(C1-Pad2)*%
X74320000Y-77470000D03*
%TD*%
D22*
%TO.N,Net-(Bias1-Pad1)*%
X70020000Y-86136002D02*
X70615999Y-86732001D01*
X70020000Y-84582000D02*
X70020000Y-86136002D01*
X81485001Y-82390000D02*
X80983003Y-82390000D01*
X79633002Y-83740001D02*
X76519999Y-83740001D01*
X80983003Y-82390000D02*
X79633002Y-83740001D01*
X73527999Y-86732001D02*
X70615999Y-86732001D01*
X76519999Y-83740001D02*
X73527999Y-86732001D01*
%TO.N,Net-(C1-Pad2)*%
X71120000Y-78280000D02*
X71120000Y-78677000D01*
X71200000Y-77470000D02*
X71120000Y-77390000D01*
X74320000Y-77470000D02*
X71200000Y-77470000D01*
X71120000Y-77390000D02*
X71120000Y-78280000D01*
X71120000Y-75522000D02*
X71120000Y-77390000D01*
%TO.N,EFX_IN*%
X63254999Y-101595001D02*
X62610000Y-102240000D01*
X63254999Y-82390000D02*
X63254999Y-101595001D01*
X62610000Y-102240000D02*
X57079999Y-107770001D01*
X63260000Y-101590000D02*
X62610000Y-102240000D01*
X58730000Y-129920000D02*
X58730000Y-127830000D01*
X57079999Y-126179999D02*
X57079999Y-107770001D01*
X58730000Y-127830000D02*
X57079999Y-126179999D01*
%TO.N,IN*%
X70490000Y-95860000D02*
X70490000Y-107290000D01*
X71620000Y-107290000D02*
X70490000Y-107290000D01*
X84505000Y-120175000D02*
X71620000Y-107290000D01*
X84505000Y-129945000D02*
X84505000Y-120175000D01*
D23*
%TO.N,OUT*%
X71840000Y-113665000D02*
X71800000Y-113625000D01*
D22*
X71730000Y-112490000D02*
X71730000Y-123920000D01*
X77950000Y-123920000D02*
X71730000Y-123920000D01*
X79720000Y-123920000D02*
X77950000Y-123920000D01*
X82145010Y-126345010D02*
X79720000Y-123920000D01*
X82145010Y-132730000D02*
X82145010Y-126345010D01*
X83390000Y-132730000D02*
X82145010Y-132730000D01*
%TO.N,EFX_OUT*%
X55260000Y-131394990D02*
X56595010Y-132730000D01*
X58910000Y-91670000D02*
X55260000Y-95320000D01*
X58930000Y-88150000D02*
X58930000Y-91670000D01*
X55540000Y-84760000D02*
X58930000Y-88150000D01*
X56595010Y-132730000D02*
X58730000Y-132730000D01*
X55530000Y-84760000D02*
X55540000Y-84760000D01*
X55530000Y-80380000D02*
X55530000Y-84760000D01*
X55260000Y-95320000D02*
X55260000Y-131394990D01*
X58930000Y-91670000D02*
X58910000Y-91670000D01*
X56670000Y-79240000D02*
X55530000Y-80380000D01*
X60140000Y-79240000D02*
X56670000Y-79240000D01*
X60754999Y-78625001D02*
X60140000Y-79240000D01*
X60754999Y-76580000D02*
X60754999Y-78625001D01*
%TO.N,Net-(D1-Pad1)*%
X70020000Y-66420000D02*
X69870000Y-66270000D01*
X70025000Y-66425000D02*
X69870000Y-66270000D01*
X70025000Y-69550000D02*
X70025000Y-66425000D01*
X86375000Y-132730000D02*
X86850000Y-132255000D01*
%TO.N,Net-(Fuzz1-Pad3)*%
X72220000Y-82695000D02*
X72280000Y-82695000D01*
X72220000Y-84582000D02*
X72220000Y-82695000D01*
X72280000Y-82745000D02*
X75500000Y-79525000D01*
X72220000Y-82695000D02*
X71120000Y-81595000D01*
X71120000Y-81595000D02*
X71120000Y-80327000D01*
X83985001Y-77739999D02*
X83985001Y-76580000D01*
X82195000Y-79530000D02*
X83985001Y-77739999D01*
X75500000Y-79530000D02*
X82195000Y-79530000D01*
%TO.N,Net-(Q1-Pad3)*%
X71120000Y-82584962D02*
X70020000Y-81484962D01*
X71120000Y-85682000D02*
X71120000Y-82584962D01*
X70020000Y-81484962D02*
X70020000Y-74422000D01*
X70020000Y-71205000D02*
X70025000Y-71200000D01*
X70020000Y-74422000D02*
X70020000Y-71205000D01*
%TD*%
D24*
%TO.N,GND*%
X80710000Y-59062418D02*
X80712988Y-59092752D01*
X80712813Y-59117743D01*
X80713713Y-59126914D01*
X80795315Y-59903302D01*
X80807338Y-59961871D01*
X80818551Y-60020657D01*
X80821215Y-60029479D01*
X81052063Y-60775229D01*
X81075238Y-60830359D01*
X81097652Y-60885838D01*
X81101979Y-60893974D01*
X81473282Y-61580684D01*
X81506727Y-61630268D01*
X81539487Y-61680331D01*
X81545311Y-61687472D01*
X82042924Y-62288983D01*
X82085376Y-62331140D01*
X82127223Y-62373873D01*
X82134318Y-62379741D01*
X82134324Y-62379747D01*
X82134331Y-62379751D01*
X82739294Y-62873148D01*
X82789087Y-62906230D01*
X82838476Y-62940048D01*
X82846583Y-62944430D01*
X83535867Y-63310930D01*
X83591182Y-63333729D01*
X83646154Y-63357290D01*
X83654957Y-63360015D01*
X84402302Y-63585652D01*
X84461011Y-63597277D01*
X84519494Y-63609708D01*
X84528657Y-63610671D01*
X84528659Y-63610671D01*
X85305596Y-63686850D01*
X85305598Y-63686850D01*
X85337581Y-63690000D01*
X86960001Y-63690000D01*
X86960001Y-66941410D01*
X86931123Y-66928260D01*
X86721891Y-66873425D01*
X86412001Y-66988147D01*
X86412001Y-68953000D01*
X86432001Y-68953000D01*
X86432001Y-69207000D01*
X86412001Y-69207000D01*
X86412001Y-71171853D01*
X86721891Y-71286575D01*
X86931123Y-71231740D01*
X86960001Y-71218590D01*
X86960001Y-87751410D01*
X86931123Y-87738260D01*
X86721891Y-87683425D01*
X86412001Y-87798147D01*
X86412001Y-89763000D01*
X86432001Y-89763000D01*
X86432001Y-90017000D01*
X86412001Y-90017000D01*
X86412001Y-91981853D01*
X86721891Y-92096575D01*
X86931123Y-92041740D01*
X86960001Y-92028590D01*
X86960000Y-131364963D01*
X86808158Y-131302068D01*
X86521260Y-131245000D01*
X86228740Y-131245000D01*
X85941842Y-131302068D01*
X85671589Y-131414010D01*
X85428368Y-131576525D01*
X85221525Y-131783368D01*
X85059010Y-132026589D01*
X84947068Y-132296842D01*
X84890000Y-132583740D01*
X84890000Y-132876260D01*
X84947068Y-133163158D01*
X85059010Y-133433411D01*
X85221525Y-133676632D01*
X85428368Y-133883475D01*
X85671589Y-134045990D01*
X85911479Y-134145355D01*
X85721589Y-134224010D01*
X85478368Y-134386525D01*
X85271525Y-134593368D01*
X85109010Y-134836589D01*
X84997068Y-135106842D01*
X84940000Y-135393740D01*
X84940000Y-135686260D01*
X84997068Y-135973158D01*
X85109010Y-136243411D01*
X85271525Y-136486632D01*
X85478368Y-136693475D01*
X85721589Y-136855990D01*
X85991842Y-136967932D01*
X86002238Y-136970000D01*
X82050000Y-136970000D01*
X82050000Y-135408514D01*
X82055000Y-135408514D01*
X82055000Y-135671486D01*
X82106304Y-135929405D01*
X82206939Y-136172359D01*
X82353038Y-136391013D01*
X82538987Y-136576962D01*
X82757641Y-136723061D01*
X83000595Y-136823696D01*
X83258514Y-136875000D01*
X83521486Y-136875000D01*
X83779405Y-136823696D01*
X84022359Y-136723061D01*
X84241013Y-136576962D01*
X84426962Y-136391013D01*
X84573061Y-136172359D01*
X84673696Y-135929405D01*
X84725000Y-135671486D01*
X84725000Y-135408514D01*
X84673696Y-135150595D01*
X84573061Y-134907641D01*
X84426962Y-134688987D01*
X84241013Y-134503038D01*
X84022359Y-134356939D01*
X83779405Y-134256304D01*
X83521486Y-134205000D01*
X83258514Y-134205000D01*
X83000595Y-134256304D01*
X82757641Y-134356939D01*
X82538987Y-134503038D01*
X82353038Y-134688987D01*
X82206939Y-134907641D01*
X82106304Y-135150595D01*
X82055000Y-135408514D01*
X82050000Y-135408514D01*
X82050000Y-133609924D01*
X82145010Y-133619282D01*
X82188486Y-133615000D01*
X82387025Y-133615000D01*
X82538987Y-133766962D01*
X82757641Y-133913061D01*
X83000595Y-134013696D01*
X83258514Y-134065000D01*
X83521486Y-134065000D01*
X83779405Y-134013696D01*
X84022359Y-133913061D01*
X84241013Y-133766962D01*
X84426962Y-133581013D01*
X84573061Y-133362359D01*
X84673696Y-133119405D01*
X84725000Y-132861486D01*
X84725000Y-132598514D01*
X84673696Y-132340595D01*
X84573061Y-132097641D01*
X84426962Y-131878987D01*
X84241013Y-131693038D01*
X84022359Y-131546939D01*
X83779405Y-131446304D01*
X83521486Y-131395000D01*
X83258514Y-131395000D01*
X83030010Y-131440453D01*
X83030010Y-126388476D01*
X83034291Y-126345009D01*
X83030010Y-126301543D01*
X83030010Y-126301533D01*
X83017205Y-126171520D01*
X82966599Y-126004697D01*
X82884421Y-125850951D01*
X82773827Y-125716193D01*
X82740059Y-125688480D01*
X80376534Y-123324956D01*
X80348817Y-123291183D01*
X80214059Y-123180589D01*
X80060313Y-123098411D01*
X79893490Y-123047805D01*
X79763477Y-123035000D01*
X79763469Y-123035000D01*
X79720000Y-123030719D01*
X79676531Y-123035000D01*
X73674328Y-123035000D01*
X73622012Y-122908698D01*
X73388363Y-122559017D01*
X73090983Y-122261637D01*
X72741302Y-122027988D01*
X72615000Y-121975672D01*
X72615000Y-114434328D01*
X72741302Y-114382012D01*
X73090983Y-114148363D01*
X73388363Y-113850983D01*
X73622012Y-113501302D01*
X73782953Y-113112756D01*
X73865000Y-112700279D01*
X73865000Y-112279721D01*
X73782953Y-111867244D01*
X73622012Y-111478698D01*
X73388363Y-111129017D01*
X73090983Y-110831637D01*
X72741302Y-110597988D01*
X72352756Y-110437047D01*
X71940279Y-110355000D01*
X71519721Y-110355000D01*
X71107244Y-110437047D01*
X70718698Y-110597988D01*
X70369017Y-110831637D01*
X70071637Y-111129017D01*
X69837988Y-111478698D01*
X69677047Y-111867244D01*
X69595000Y-112279721D01*
X69595000Y-112700279D01*
X69601923Y-112735085D01*
X69591302Y-112727988D01*
X69202756Y-112567047D01*
X68790279Y-112485000D01*
X68369721Y-112485000D01*
X67957244Y-112567047D01*
X67568698Y-112727988D01*
X67500413Y-112773615D01*
X67515000Y-112700279D01*
X67515000Y-112279721D01*
X67432953Y-111867244D01*
X67272012Y-111478698D01*
X67038363Y-111129017D01*
X66740983Y-110831637D01*
X66391302Y-110597988D01*
X66002756Y-110437047D01*
X65590279Y-110355000D01*
X65169721Y-110355000D01*
X64757244Y-110437047D01*
X64368698Y-110597988D01*
X64019017Y-110831637D01*
X63721637Y-111129017D01*
X63504328Y-111454244D01*
X63499987Y-111447748D01*
X63272252Y-111220013D01*
X63004463Y-111041082D01*
X62706912Y-110917832D01*
X62391033Y-110855000D01*
X62068967Y-110855000D01*
X61753088Y-110917832D01*
X61455537Y-111041082D01*
X61187748Y-111220013D01*
X60960013Y-111447748D01*
X60925579Y-111499283D01*
X60837214Y-111333962D01*
X60521653Y-111177952D01*
X59209605Y-112490000D01*
X60521653Y-113802048D01*
X60837214Y-113646038D01*
X60923196Y-113477151D01*
X60960013Y-113532252D01*
X61187748Y-113759987D01*
X61455537Y-113938918D01*
X61753088Y-114062168D01*
X62068967Y-114125000D01*
X62391033Y-114125000D01*
X62706912Y-114062168D01*
X63004463Y-113938918D01*
X63272252Y-113759987D01*
X63499987Y-113532252D01*
X63504328Y-113525756D01*
X63721637Y-113850983D01*
X64019017Y-114148363D01*
X64368698Y-114382012D01*
X64757244Y-114542953D01*
X65169721Y-114625000D01*
X65590279Y-114625000D01*
X66002756Y-114542953D01*
X66391302Y-114382012D01*
X66459587Y-114336385D01*
X66445000Y-114409721D01*
X66445000Y-114830279D01*
X66527047Y-115242756D01*
X66687988Y-115631302D01*
X66921637Y-115980983D01*
X67219017Y-116278363D01*
X67568698Y-116512012D01*
X67957244Y-116672953D01*
X68369721Y-116755000D01*
X68790279Y-116755000D01*
X69202756Y-116672953D01*
X69591302Y-116512012D01*
X69940983Y-116278363D01*
X70238363Y-115980983D01*
X70472012Y-115631302D01*
X70632953Y-115242756D01*
X70715000Y-114830279D01*
X70715000Y-114409721D01*
X70708077Y-114374915D01*
X70718698Y-114382012D01*
X70845000Y-114434328D01*
X70845001Y-121975672D01*
X70718698Y-122027988D01*
X70369017Y-122261637D01*
X70071637Y-122559017D01*
X69837988Y-122908698D01*
X69677047Y-123297244D01*
X69595000Y-123709721D01*
X69595000Y-124130279D01*
X69677047Y-124542756D01*
X69837988Y-124931302D01*
X70071637Y-125280983D01*
X70369017Y-125578363D01*
X70718698Y-125812012D01*
X71107244Y-125972953D01*
X71519721Y-126055000D01*
X71940279Y-126055000D01*
X72352756Y-125972953D01*
X72741302Y-125812012D01*
X73090983Y-125578363D01*
X73388363Y-125280983D01*
X73622012Y-124931302D01*
X73674328Y-124805000D01*
X79353422Y-124805000D01*
X80639744Y-126091323D01*
X80454405Y-126073150D01*
X80454402Y-126073150D01*
X80422419Y-126070000D01*
X61817581Y-126070000D01*
X61789326Y-126072783D01*
X61783199Y-126072740D01*
X61774028Y-126073640D01*
X61579931Y-126094041D01*
X61521348Y-126106066D01*
X61462577Y-126117277D01*
X61453755Y-126119941D01*
X61267317Y-126177653D01*
X61212162Y-126200838D01*
X61156709Y-126223242D01*
X61148573Y-126227568D01*
X60976896Y-126320393D01*
X60927278Y-126353861D01*
X60877247Y-126386600D01*
X60870106Y-126392424D01*
X60719728Y-126516828D01*
X60677589Y-126559263D01*
X60634839Y-126601126D01*
X60628966Y-126608227D01*
X60505616Y-126759469D01*
X60472534Y-126809262D01*
X60438716Y-126858651D01*
X60434333Y-126866757D01*
X60342708Y-127039079D01*
X60319909Y-127094394D01*
X60296348Y-127149366D01*
X60293623Y-127158169D01*
X60237214Y-127345005D01*
X60225594Y-127403693D01*
X60213158Y-127462196D01*
X60212195Y-127471361D01*
X60193150Y-127665595D01*
X60193150Y-127665608D01*
X60190001Y-127697581D01*
X60190000Y-136970000D01*
X55280000Y-136970000D01*
X55280000Y-136461269D01*
X57988336Y-136461269D01*
X58047797Y-136695037D01*
X58286242Y-136805934D01*
X58541740Y-136868183D01*
X58804473Y-136879390D01*
X59064344Y-136839125D01*
X59311366Y-136748935D01*
X59412203Y-136695037D01*
X59471664Y-136461269D01*
X58730000Y-135719605D01*
X57988336Y-136461269D01*
X55280000Y-136461269D01*
X55280000Y-135614473D01*
X57390610Y-135614473D01*
X57430875Y-135874344D01*
X57521065Y-136121366D01*
X57574963Y-136222203D01*
X57808731Y-136281664D01*
X58550395Y-135540000D01*
X58909605Y-135540000D01*
X59651269Y-136281664D01*
X59885037Y-136222203D01*
X59995934Y-135983758D01*
X60058183Y-135728260D01*
X60069390Y-135465527D01*
X60029125Y-135205656D01*
X59938935Y-134958634D01*
X59885037Y-134857797D01*
X59651269Y-134798336D01*
X58909605Y-135540000D01*
X58550395Y-135540000D01*
X57808731Y-134798336D01*
X57574963Y-134857797D01*
X57464066Y-135096242D01*
X57401817Y-135351740D01*
X57390610Y-135614473D01*
X55280000Y-135614473D01*
X55280000Y-134618731D01*
X57988336Y-134618731D01*
X58730000Y-135360395D01*
X59471664Y-134618731D01*
X59412203Y-134384963D01*
X59173758Y-134274066D01*
X58918260Y-134211817D01*
X58655527Y-134200610D01*
X58395656Y-134240875D01*
X58148634Y-134331065D01*
X58047797Y-134384963D01*
X57988336Y-134618731D01*
X55280000Y-134618731D01*
X55280000Y-132666568D01*
X55938480Y-133325049D01*
X55966193Y-133358817D01*
X55999961Y-133386530D01*
X55999963Y-133386532D01*
X56057085Y-133433411D01*
X56100951Y-133469411D01*
X56254697Y-133551589D01*
X56421520Y-133602195D01*
X56551533Y-133615000D01*
X56551543Y-133615000D01*
X56595009Y-133619281D01*
X56638475Y-133615000D01*
X57727025Y-133615000D01*
X57878987Y-133766962D01*
X58097641Y-133913061D01*
X58340595Y-134013696D01*
X58598514Y-134065000D01*
X58861486Y-134065000D01*
X59119405Y-134013696D01*
X59362359Y-133913061D01*
X59581013Y-133766962D01*
X59766962Y-133581013D01*
X59913061Y-133362359D01*
X60013696Y-133119405D01*
X60065000Y-132861486D01*
X60065000Y-132598514D01*
X60013696Y-132340595D01*
X59913061Y-132097641D01*
X59766962Y-131878987D01*
X59581013Y-131693038D01*
X59362359Y-131546939D01*
X59119405Y-131446304D01*
X58861486Y-131395000D01*
X58598514Y-131395000D01*
X58340595Y-131446304D01*
X58097641Y-131546939D01*
X57878987Y-131693038D01*
X57727025Y-131845000D01*
X56961589Y-131845000D01*
X56145000Y-131028412D01*
X56145000Y-107770001D01*
X56190718Y-107770001D01*
X56195000Y-107813480D01*
X56194999Y-126136530D01*
X56190718Y-126179999D01*
X56194999Y-126223468D01*
X56194999Y-126223475D01*
X56204545Y-126320394D01*
X56207804Y-126353489D01*
X56218455Y-126388598D01*
X56258410Y-126520311D01*
X56340588Y-126674057D01*
X56451182Y-126808816D01*
X56484955Y-126836533D01*
X57845001Y-128196580D01*
X57845000Y-128917025D01*
X57693038Y-129068987D01*
X57546939Y-129287641D01*
X57446304Y-129530595D01*
X57395000Y-129788514D01*
X57395000Y-130051486D01*
X57446304Y-130309405D01*
X57546939Y-130552359D01*
X57693038Y-130771013D01*
X57878987Y-130956962D01*
X58097641Y-131103061D01*
X58340595Y-131203696D01*
X58598514Y-131255000D01*
X58861486Y-131255000D01*
X59119405Y-131203696D01*
X59362359Y-131103061D01*
X59581013Y-130956962D01*
X59766962Y-130771013D01*
X59913061Y-130552359D01*
X60013696Y-130309405D01*
X60065000Y-130051486D01*
X60065000Y-129788514D01*
X60013696Y-129530595D01*
X59913061Y-129287641D01*
X59766962Y-129068987D01*
X59615000Y-128917025D01*
X59615000Y-127873469D01*
X59619281Y-127830000D01*
X59615000Y-127786531D01*
X59615000Y-127786523D01*
X59602195Y-127656510D01*
X59551589Y-127489687D01*
X59469411Y-127335941D01*
X59453798Y-127316917D01*
X59386532Y-127234953D01*
X59386530Y-127234951D01*
X59358817Y-127201183D01*
X59325049Y-127173470D01*
X57964999Y-125813421D01*
X57964999Y-125773562D01*
X58248745Y-125918020D01*
X58653551Y-126032044D01*
X59072824Y-126064902D01*
X59490451Y-126015334D01*
X59890383Y-125885243D01*
X60186038Y-125727214D01*
X60342048Y-125411653D01*
X59030000Y-124099605D01*
X59015858Y-124113748D01*
X58836253Y-123934143D01*
X58850395Y-123920000D01*
X59209605Y-123920000D01*
X60521653Y-125232048D01*
X60837214Y-125076038D01*
X60923196Y-124907151D01*
X60960013Y-124962252D01*
X61187748Y-125189987D01*
X61455537Y-125368918D01*
X61753088Y-125492168D01*
X62068967Y-125555000D01*
X62391033Y-125555000D01*
X62706912Y-125492168D01*
X63004463Y-125368918D01*
X63272252Y-125189987D01*
X63499987Y-124962252D01*
X63504328Y-124955756D01*
X63721637Y-125280983D01*
X64019017Y-125578363D01*
X64368698Y-125812012D01*
X64757244Y-125972953D01*
X65169721Y-126055000D01*
X65590279Y-126055000D01*
X66002756Y-125972953D01*
X66391302Y-125812012D01*
X66740983Y-125578363D01*
X67038363Y-125280983D01*
X67272012Y-124931302D01*
X67432953Y-124542756D01*
X67515000Y-124130279D01*
X67515000Y-123709721D01*
X67432953Y-123297244D01*
X67272012Y-122908698D01*
X67038363Y-122559017D01*
X66740983Y-122261637D01*
X66391302Y-122027988D01*
X66002756Y-121867047D01*
X65590279Y-121785000D01*
X65169721Y-121785000D01*
X64757244Y-121867047D01*
X64368698Y-122027988D01*
X64019017Y-122261637D01*
X63721637Y-122559017D01*
X63504328Y-122884244D01*
X63499987Y-122877748D01*
X63272252Y-122650013D01*
X63004463Y-122471082D01*
X62706912Y-122347832D01*
X62391033Y-122285000D01*
X62068967Y-122285000D01*
X61753088Y-122347832D01*
X61455537Y-122471082D01*
X61187748Y-122650013D01*
X60960013Y-122877748D01*
X60925579Y-122929283D01*
X60837214Y-122763962D01*
X60521653Y-122607952D01*
X59209605Y-123920000D01*
X58850395Y-123920000D01*
X58836253Y-123905858D01*
X59015858Y-123726253D01*
X59030000Y-123740395D01*
X60342048Y-122428347D01*
X60186038Y-122112786D01*
X59811255Y-121921980D01*
X59406449Y-121807956D01*
X58987176Y-121775098D01*
X58569549Y-121824666D01*
X58169617Y-121954757D01*
X57964999Y-122064126D01*
X57964999Y-114343562D01*
X58248745Y-114488020D01*
X58653551Y-114602044D01*
X59072824Y-114634902D01*
X59490451Y-114585334D01*
X59890383Y-114455243D01*
X60186038Y-114297214D01*
X60342048Y-113981653D01*
X59030000Y-112669605D01*
X59015858Y-112683748D01*
X58836253Y-112504143D01*
X58850395Y-112490000D01*
X58836253Y-112475858D01*
X59015858Y-112296253D01*
X59030000Y-112310395D01*
X60342048Y-110998347D01*
X60186038Y-110682786D01*
X59811255Y-110491980D01*
X59406449Y-110377956D01*
X58987176Y-110345098D01*
X58569549Y-110394666D01*
X58169617Y-110524757D01*
X57964999Y-110634126D01*
X57964999Y-108136579D01*
X63266532Y-102835047D01*
X63266536Y-102835042D01*
X63850048Y-102251531D01*
X63883816Y-102223818D01*
X63911531Y-102190048D01*
X63916532Y-102185047D01*
X63999411Y-102084059D01*
X64081588Y-101930314D01*
X64132195Y-101763490D01*
X64149281Y-101590000D01*
X64139999Y-101495751D01*
X64139999Y-95649721D01*
X68355000Y-95649721D01*
X68355000Y-96070279D01*
X68437047Y-96482756D01*
X68597988Y-96871302D01*
X68831637Y-97220983D01*
X69129017Y-97518363D01*
X69478698Y-97752012D01*
X69605000Y-97804328D01*
X69605001Y-105345672D01*
X69478698Y-105397988D01*
X69129017Y-105631637D01*
X68831637Y-105929017D01*
X68597988Y-106278698D01*
X68437047Y-106667244D01*
X68355000Y-107079721D01*
X68355000Y-107500279D01*
X68437047Y-107912756D01*
X68597988Y-108301302D01*
X68831637Y-108650983D01*
X69129017Y-108948363D01*
X69478698Y-109182012D01*
X69867244Y-109342953D01*
X70279721Y-109425000D01*
X70700279Y-109425000D01*
X71112756Y-109342953D01*
X71501302Y-109182012D01*
X71850983Y-108948363D01*
X71938884Y-108860462D01*
X83620001Y-120541580D01*
X83620000Y-128942025D01*
X83468038Y-129093987D01*
X83321939Y-129312641D01*
X83221304Y-129555595D01*
X83170000Y-129813514D01*
X83170000Y-130076486D01*
X83221304Y-130334405D01*
X83321939Y-130577359D01*
X83468038Y-130796013D01*
X83653987Y-130981962D01*
X83872641Y-131128061D01*
X84115595Y-131228696D01*
X84373514Y-131280000D01*
X84636486Y-131280000D01*
X84894405Y-131228696D01*
X85137359Y-131128061D01*
X85356013Y-130981962D01*
X85541962Y-130796013D01*
X85688061Y-130577359D01*
X85788696Y-130334405D01*
X85840000Y-130076486D01*
X85840000Y-129813514D01*
X85788696Y-129555595D01*
X85688061Y-129312641D01*
X85541962Y-129093987D01*
X85390000Y-128942025D01*
X85390000Y-120218469D01*
X85394281Y-120175000D01*
X85390000Y-120131531D01*
X85390000Y-120131523D01*
X85377195Y-120001510D01*
X85326589Y-119834687D01*
X85244411Y-119680941D01*
X85133817Y-119546183D01*
X85100049Y-119518470D01*
X72637049Y-107055471D01*
X73017244Y-107212953D01*
X73429721Y-107295000D01*
X73850279Y-107295000D01*
X74262756Y-107212953D01*
X74651302Y-107052012D01*
X74719587Y-107006385D01*
X74705000Y-107079721D01*
X74705000Y-107500279D01*
X74787047Y-107912756D01*
X74947988Y-108301302D01*
X75181637Y-108650983D01*
X75479017Y-108948363D01*
X75828698Y-109182012D01*
X76217244Y-109342953D01*
X76629721Y-109425000D01*
X77050279Y-109425000D01*
X77462756Y-109342953D01*
X77851302Y-109182012D01*
X78200983Y-108948363D01*
X78498363Y-108650983D01*
X78715672Y-108325756D01*
X78720013Y-108332252D01*
X78947748Y-108559987D01*
X79215537Y-108738918D01*
X79513088Y-108862168D01*
X79828967Y-108925000D01*
X80151033Y-108925000D01*
X80466912Y-108862168D01*
X80661291Y-108781653D01*
X81877952Y-108781653D01*
X82033962Y-109097214D01*
X82408745Y-109288020D01*
X82813551Y-109402044D01*
X83232824Y-109434902D01*
X83650451Y-109385334D01*
X84050383Y-109255243D01*
X84346038Y-109097214D01*
X84502048Y-108781653D01*
X83190000Y-107469605D01*
X81877952Y-108781653D01*
X80661291Y-108781653D01*
X80764463Y-108738918D01*
X81032252Y-108559987D01*
X81259987Y-108332252D01*
X81294421Y-108280717D01*
X81382786Y-108446038D01*
X81698347Y-108602048D01*
X83010395Y-107290000D01*
X83369605Y-107290000D01*
X84681653Y-108602048D01*
X84997214Y-108446038D01*
X85188020Y-108071255D01*
X85302044Y-107666449D01*
X85334902Y-107247176D01*
X85285334Y-106829549D01*
X85155243Y-106429617D01*
X84997214Y-106133962D01*
X84681653Y-105977952D01*
X83369605Y-107290000D01*
X83010395Y-107290000D01*
X81698347Y-105977952D01*
X81382786Y-106133962D01*
X81296804Y-106302849D01*
X81259987Y-106247748D01*
X81032252Y-106020013D01*
X80764463Y-105841082D01*
X80661292Y-105798347D01*
X81877952Y-105798347D01*
X83190000Y-107110395D01*
X84502048Y-105798347D01*
X84346038Y-105482786D01*
X83971255Y-105291980D01*
X83566449Y-105177956D01*
X83147176Y-105145098D01*
X82729549Y-105194666D01*
X82329617Y-105324757D01*
X82033962Y-105482786D01*
X81877952Y-105798347D01*
X80661292Y-105798347D01*
X80466912Y-105717832D01*
X80151033Y-105655000D01*
X79828967Y-105655000D01*
X79513088Y-105717832D01*
X79215537Y-105841082D01*
X78947748Y-106020013D01*
X78720013Y-106247748D01*
X78715672Y-106254244D01*
X78498363Y-105929017D01*
X78200983Y-105631637D01*
X77851302Y-105397988D01*
X77462756Y-105237047D01*
X77050279Y-105155000D01*
X76629721Y-105155000D01*
X76217244Y-105237047D01*
X75828698Y-105397988D01*
X75760413Y-105443615D01*
X75775000Y-105370279D01*
X75775000Y-104949721D01*
X75692953Y-104537244D01*
X75532012Y-104148698D01*
X75298363Y-103799017D01*
X75000983Y-103501637D01*
X74651302Y-103267988D01*
X74262756Y-103107047D01*
X73850279Y-103025000D01*
X73429721Y-103025000D01*
X73017244Y-103107047D01*
X72628698Y-103267988D01*
X72279017Y-103501637D01*
X71981637Y-103799017D01*
X71747988Y-104148698D01*
X71587047Y-104537244D01*
X71505000Y-104949721D01*
X71505000Y-105370279D01*
X71511923Y-105405085D01*
X71501302Y-105397988D01*
X71375000Y-105345672D01*
X71375000Y-97804328D01*
X71501302Y-97752012D01*
X71850983Y-97518363D01*
X72148363Y-97220983D01*
X72382012Y-96871302D01*
X72542953Y-96482756D01*
X72625000Y-96070279D01*
X72625000Y-95649721D01*
X74705000Y-95649721D01*
X74705000Y-96070279D01*
X74787047Y-96482756D01*
X74947988Y-96871302D01*
X75181637Y-97220983D01*
X75479017Y-97518363D01*
X75828698Y-97752012D01*
X76217244Y-97912953D01*
X76629721Y-97995000D01*
X77050279Y-97995000D01*
X77462756Y-97912953D01*
X77851302Y-97752012D01*
X78200983Y-97518363D01*
X78498363Y-97220983D01*
X78715672Y-96895756D01*
X78720013Y-96902252D01*
X78947748Y-97129987D01*
X79215537Y-97308918D01*
X79513088Y-97432168D01*
X79828967Y-97495000D01*
X80151033Y-97495000D01*
X80466912Y-97432168D01*
X80661291Y-97351653D01*
X81877952Y-97351653D01*
X82033962Y-97667214D01*
X82408745Y-97858020D01*
X82813551Y-97972044D01*
X83232824Y-98004902D01*
X83650451Y-97955334D01*
X84050383Y-97825243D01*
X84346038Y-97667214D01*
X84502048Y-97351653D01*
X83190000Y-96039605D01*
X81877952Y-97351653D01*
X80661291Y-97351653D01*
X80764463Y-97308918D01*
X81032252Y-97129987D01*
X81259987Y-96902252D01*
X81294421Y-96850717D01*
X81382786Y-97016038D01*
X81698347Y-97172048D01*
X83010395Y-95860000D01*
X83369605Y-95860000D01*
X84681653Y-97172048D01*
X84997214Y-97016038D01*
X85188020Y-96641255D01*
X85302044Y-96236449D01*
X85334902Y-95817176D01*
X85285334Y-95399549D01*
X85155243Y-94999617D01*
X84997214Y-94703962D01*
X84681653Y-94547952D01*
X83369605Y-95860000D01*
X83010395Y-95860000D01*
X81698347Y-94547952D01*
X81382786Y-94703962D01*
X81296804Y-94872849D01*
X81259987Y-94817748D01*
X81032252Y-94590013D01*
X80764463Y-94411082D01*
X80661292Y-94368347D01*
X81877952Y-94368347D01*
X83190000Y-95680395D01*
X84502048Y-94368347D01*
X84346038Y-94052786D01*
X83971255Y-93861980D01*
X83566449Y-93747956D01*
X83147176Y-93715098D01*
X82729549Y-93764666D01*
X82329617Y-93894757D01*
X82033962Y-94052786D01*
X81877952Y-94368347D01*
X80661292Y-94368347D01*
X80466912Y-94287832D01*
X80151033Y-94225000D01*
X79828967Y-94225000D01*
X79513088Y-94287832D01*
X79215537Y-94411082D01*
X78947748Y-94590013D01*
X78720013Y-94817748D01*
X78715672Y-94824244D01*
X78498363Y-94499017D01*
X78200983Y-94201637D01*
X77851302Y-93967988D01*
X77462756Y-93807047D01*
X77050279Y-93725000D01*
X76629721Y-93725000D01*
X76217244Y-93807047D01*
X75828698Y-93967988D01*
X75479017Y-94201637D01*
X75181637Y-94499017D01*
X74947988Y-94848698D01*
X74787047Y-95237244D01*
X74705000Y-95649721D01*
X72625000Y-95649721D01*
X72542953Y-95237244D01*
X72382012Y-94848698D01*
X72148363Y-94499017D01*
X71850983Y-94201637D01*
X71501302Y-93967988D01*
X71112756Y-93807047D01*
X70700279Y-93725000D01*
X70279721Y-93725000D01*
X69867244Y-93807047D01*
X69478698Y-93967988D01*
X69129017Y-94201637D01*
X68831637Y-94499017D01*
X68597988Y-94848698D01*
X68437047Y-95237244D01*
X68355000Y-95649721D01*
X64139999Y-95649721D01*
X64139999Y-91549606D01*
X64234123Y-91650480D01*
X64552232Y-91879339D01*
X64908877Y-92041740D01*
X65118109Y-92096575D01*
X65427999Y-91981853D01*
X65427999Y-90017000D01*
X65681999Y-90017000D01*
X65681999Y-91981853D01*
X65991889Y-92096575D01*
X66201121Y-92041740D01*
X66557766Y-91879339D01*
X66875875Y-91650480D01*
X67143224Y-91363959D01*
X67349538Y-91030786D01*
X67486889Y-90663765D01*
X67549999Y-90277000D01*
X67549999Y-90017000D01*
X74690001Y-90017000D01*
X74690001Y-90277000D01*
X74753111Y-90663765D01*
X74890462Y-91030786D01*
X75096776Y-91363959D01*
X75364125Y-91650480D01*
X75682234Y-91879339D01*
X76038879Y-92041740D01*
X76248111Y-92096575D01*
X76558001Y-91981853D01*
X76558001Y-90017000D01*
X76812001Y-90017000D01*
X76812001Y-91981853D01*
X77121891Y-92096575D01*
X77331123Y-92041740D01*
X77687768Y-91879339D01*
X78005877Y-91650480D01*
X78273226Y-91363959D01*
X78479540Y-91030786D01*
X78616891Y-90663765D01*
X78680001Y-90277000D01*
X78680001Y-90017000D01*
X84290001Y-90017000D01*
X84290001Y-90277000D01*
X84353111Y-90663765D01*
X84490462Y-91030786D01*
X84696776Y-91363959D01*
X84964125Y-91650480D01*
X85282234Y-91879339D01*
X85638879Y-92041740D01*
X85848111Y-92096575D01*
X86158001Y-91981853D01*
X86158001Y-90017000D01*
X84290001Y-90017000D01*
X78680001Y-90017000D01*
X76812001Y-90017000D01*
X76558001Y-90017000D01*
X74690001Y-90017000D01*
X67549999Y-90017000D01*
X65681999Y-90017000D01*
X65427999Y-90017000D01*
X65407999Y-90017000D01*
X65407999Y-89763000D01*
X65427999Y-89763000D01*
X65427999Y-87798147D01*
X65681999Y-87798147D01*
X65681999Y-89763000D01*
X67549999Y-89763000D01*
X67549999Y-89503000D01*
X74690001Y-89503000D01*
X74690001Y-89763000D01*
X76558001Y-89763000D01*
X76558001Y-87798147D01*
X76812001Y-87798147D01*
X76812001Y-89763000D01*
X78680001Y-89763000D01*
X78680001Y-89503000D01*
X84290001Y-89503000D01*
X84290001Y-89763000D01*
X86158001Y-89763000D01*
X86158001Y-87798147D01*
X85848111Y-87683425D01*
X85638879Y-87738260D01*
X85282234Y-87900661D01*
X84964125Y-88129520D01*
X84696776Y-88416041D01*
X84490462Y-88749214D01*
X84353111Y-89116235D01*
X84290001Y-89503000D01*
X78680001Y-89503000D01*
X78616891Y-89116235D01*
X78479540Y-88749214D01*
X78273226Y-88416041D01*
X78005877Y-88129520D01*
X77687768Y-87900661D01*
X77331123Y-87738260D01*
X77121891Y-87683425D01*
X76812001Y-87798147D01*
X76558001Y-87798147D01*
X76248111Y-87683425D01*
X76038879Y-87738260D01*
X75682234Y-87900661D01*
X75364125Y-88129520D01*
X75096776Y-88416041D01*
X74890462Y-88749214D01*
X74753111Y-89116235D01*
X74690001Y-89503000D01*
X67549999Y-89503000D01*
X67486889Y-89116235D01*
X67349538Y-88749214D01*
X67143224Y-88416041D01*
X66875875Y-88129520D01*
X66557766Y-87900661D01*
X66201121Y-87738260D01*
X65991889Y-87683425D01*
X65681999Y-87798147D01*
X65427999Y-87798147D01*
X65118109Y-87683425D01*
X64908877Y-87738260D01*
X64552232Y-87900661D01*
X64234123Y-88129520D01*
X64139999Y-88230394D01*
X64139999Y-83928072D01*
X64154999Y-83928072D01*
X64279481Y-83915812D01*
X64399179Y-83879502D01*
X64509493Y-83820537D01*
X64606184Y-83741185D01*
X64685536Y-83644494D01*
X64744501Y-83534180D01*
X64780811Y-83414482D01*
X64793071Y-83290000D01*
X64793071Y-81490000D01*
X64780811Y-81365518D01*
X64744501Y-81245820D01*
X64736045Y-81229999D01*
X65621928Y-81229999D01*
X65621928Y-82829999D01*
X65634188Y-82954481D01*
X65670498Y-83074179D01*
X65729463Y-83184493D01*
X65808815Y-83281184D01*
X65905506Y-83360536D01*
X66015820Y-83419501D01*
X66135518Y-83455811D01*
X66260000Y-83468071D01*
X67860000Y-83468071D01*
X67984482Y-83455811D01*
X68104180Y-83419501D01*
X68214494Y-83360536D01*
X68311185Y-83281184D01*
X68390537Y-83184493D01*
X68449502Y-83074179D01*
X68485812Y-82954481D01*
X68498072Y-82829999D01*
X68498072Y-81229999D01*
X68485812Y-81105517D01*
X68449502Y-80985819D01*
X68390537Y-80875505D01*
X68311185Y-80778814D01*
X68214494Y-80699462D01*
X68104180Y-80640497D01*
X67984482Y-80604187D01*
X67860000Y-80591927D01*
X66260000Y-80591927D01*
X66135518Y-80604187D01*
X66015820Y-80640497D01*
X65905506Y-80699462D01*
X65808815Y-80778814D01*
X65729463Y-80875505D01*
X65670498Y-80985819D01*
X65634188Y-81105517D01*
X65621928Y-81229999D01*
X64736045Y-81229999D01*
X64685536Y-81135506D01*
X64606184Y-81038815D01*
X64509493Y-80959463D01*
X64399179Y-80900498D01*
X64279481Y-80864188D01*
X64154999Y-80851928D01*
X62354999Y-80851928D01*
X62230517Y-80864188D01*
X62110819Y-80900498D01*
X62000505Y-80959463D01*
X61903814Y-81038815D01*
X61824462Y-81135506D01*
X61771119Y-81235303D01*
X61733504Y-81197688D01*
X61482094Y-81029701D01*
X61202742Y-80913989D01*
X60906183Y-80855000D01*
X60603815Y-80855000D01*
X60307256Y-80913989D01*
X60027904Y-81029701D01*
X59776494Y-81197688D01*
X59562687Y-81411495D01*
X59504999Y-81497831D01*
X59447311Y-81411495D01*
X59233504Y-81197688D01*
X58982094Y-81029701D01*
X58702742Y-80913989D01*
X58406183Y-80855000D01*
X58103815Y-80855000D01*
X57807256Y-80913989D01*
X57527904Y-81029701D01*
X57276494Y-81197688D01*
X57062687Y-81411495D01*
X56894700Y-81662905D01*
X56778988Y-81942257D01*
X56719999Y-82238816D01*
X56719999Y-82541184D01*
X56778988Y-82837743D01*
X56894700Y-83117095D01*
X57062687Y-83368505D01*
X57276494Y-83582312D01*
X57527904Y-83750299D01*
X57807256Y-83866011D01*
X58103815Y-83925000D01*
X58406183Y-83925000D01*
X58702742Y-83866011D01*
X58982094Y-83750299D01*
X59233504Y-83582312D01*
X59447311Y-83368505D01*
X59504999Y-83282169D01*
X59562687Y-83368505D01*
X59776494Y-83582312D01*
X60027904Y-83750299D01*
X60307256Y-83866011D01*
X60603815Y-83925000D01*
X60906183Y-83925000D01*
X61202742Y-83866011D01*
X61482094Y-83750299D01*
X61733504Y-83582312D01*
X61771119Y-83544697D01*
X61824462Y-83644494D01*
X61903814Y-83741185D01*
X62000505Y-83820537D01*
X62110819Y-83879502D01*
X62230517Y-83915812D01*
X62354999Y-83928072D01*
X62369999Y-83928072D01*
X62370000Y-101228421D01*
X62014958Y-101583464D01*
X62014953Y-101583468D01*
X56484951Y-107113471D01*
X56451183Y-107141184D01*
X56423470Y-107174952D01*
X56423467Y-107174955D01*
X56340589Y-107275942D01*
X56258411Y-107429688D01*
X56207804Y-107596511D01*
X56190718Y-107770001D01*
X56145000Y-107770001D01*
X56145000Y-95686578D01*
X59419997Y-92411582D01*
X59424059Y-92409411D01*
X59558817Y-92298817D01*
X59669411Y-92164059D01*
X59751589Y-92010313D01*
X59802195Y-91843490D01*
X59815000Y-91713477D01*
X59819282Y-91670000D01*
X59815000Y-91626523D01*
X59815000Y-88193469D01*
X59819281Y-88150000D01*
X59815000Y-88106531D01*
X59815000Y-88106523D01*
X59802195Y-87976510D01*
X59751589Y-87809687D01*
X59669411Y-87655941D01*
X59640967Y-87621282D01*
X59586532Y-87554953D01*
X59586530Y-87554951D01*
X59558817Y-87521183D01*
X59525050Y-87493471D01*
X56415000Y-84383422D01*
X56415000Y-80746578D01*
X57036579Y-80125000D01*
X60096531Y-80125000D01*
X60140000Y-80129281D01*
X60183469Y-80125000D01*
X60183477Y-80125000D01*
X60313490Y-80112195D01*
X60480313Y-80061589D01*
X60634059Y-79979411D01*
X60768817Y-79868817D01*
X60796534Y-79835044D01*
X61350048Y-79281531D01*
X61383816Y-79253818D01*
X61436448Y-79189687D01*
X61494410Y-79119060D01*
X61503748Y-79101589D01*
X61576588Y-78965314D01*
X61627194Y-78798491D01*
X61639999Y-78668478D01*
X61639999Y-78668470D01*
X61644280Y-78625001D01*
X61639999Y-78581532D01*
X61639999Y-77834790D01*
X61733504Y-77772312D01*
X61947311Y-77558505D01*
X62004999Y-77472169D01*
X62062687Y-77558505D01*
X62276494Y-77772312D01*
X62527904Y-77940299D01*
X62807256Y-78056011D01*
X63103815Y-78115000D01*
X63406183Y-78115000D01*
X63702742Y-78056011D01*
X63982094Y-77940299D01*
X64233504Y-77772312D01*
X64447311Y-77558505D01*
X64615298Y-77307095D01*
X64731010Y-77027743D01*
X64758674Y-76888664D01*
X65625000Y-76888664D01*
X65625000Y-77171334D01*
X65680147Y-77448573D01*
X65788320Y-77709726D01*
X65945363Y-77944758D01*
X66145241Y-78144636D01*
X66380273Y-78301679D01*
X66641426Y-78409852D01*
X66918665Y-78464999D01*
X67201335Y-78464999D01*
X67478574Y-78409852D01*
X67739727Y-78301679D01*
X67974759Y-78144636D01*
X68174637Y-77944758D01*
X68331680Y-77709726D01*
X68439853Y-77448573D01*
X68495000Y-77171334D01*
X68495000Y-76888664D01*
X68439853Y-76611425D01*
X68331680Y-76350272D01*
X68174637Y-76115240D01*
X67974759Y-75915362D01*
X67739727Y-75758319D01*
X67478574Y-75650146D01*
X67201335Y-75594999D01*
X66918665Y-75594999D01*
X66641426Y-75650146D01*
X66380273Y-75758319D01*
X66145241Y-75915362D01*
X65945363Y-76115240D01*
X65788320Y-76350272D01*
X65680147Y-76611425D01*
X65625000Y-76888664D01*
X64758674Y-76888664D01*
X64789999Y-76731184D01*
X64789999Y-76428816D01*
X64731010Y-76132257D01*
X64615298Y-75852905D01*
X64447311Y-75601495D01*
X64233504Y-75387688D01*
X63982094Y-75219701D01*
X63702742Y-75103989D01*
X63406183Y-75045000D01*
X63103815Y-75045000D01*
X62807256Y-75103989D01*
X62527904Y-75219701D01*
X62276494Y-75387688D01*
X62062687Y-75601495D01*
X62004999Y-75687831D01*
X61947311Y-75601495D01*
X61733504Y-75387688D01*
X61482094Y-75219701D01*
X61202742Y-75103989D01*
X60906183Y-75045000D01*
X60603815Y-75045000D01*
X60307256Y-75103989D01*
X60027904Y-75219701D01*
X59776494Y-75387688D01*
X59738879Y-75425303D01*
X59685536Y-75325506D01*
X59606184Y-75228815D01*
X59509493Y-75149463D01*
X59399179Y-75090498D01*
X59279481Y-75054188D01*
X59154999Y-75041928D01*
X58540749Y-75045000D01*
X58381999Y-75203750D01*
X58381999Y-76453000D01*
X58401999Y-76453000D01*
X58401999Y-76707000D01*
X58381999Y-76707000D01*
X58381999Y-77956250D01*
X58540749Y-78115000D01*
X59154999Y-78118072D01*
X59279481Y-78105812D01*
X59399179Y-78069502D01*
X59509493Y-78010537D01*
X59606184Y-77931185D01*
X59685536Y-77834494D01*
X59738879Y-77734697D01*
X59776494Y-77772312D01*
X59870000Y-77834791D01*
X59870000Y-78258422D01*
X59773422Y-78355000D01*
X56713465Y-78355000D01*
X56669999Y-78350719D01*
X56626533Y-78355000D01*
X56626523Y-78355000D01*
X56496510Y-78367805D01*
X56329687Y-78418411D01*
X56175941Y-78500589D01*
X56175939Y-78500590D01*
X56175940Y-78500590D01*
X56074953Y-78583468D01*
X56074951Y-78583470D01*
X56041183Y-78611183D01*
X56013470Y-78644951D01*
X55280000Y-79378422D01*
X55280000Y-77480000D01*
X56716927Y-77480000D01*
X56729187Y-77604482D01*
X56765497Y-77724180D01*
X56824462Y-77834494D01*
X56903814Y-77931185D01*
X57000505Y-78010537D01*
X57110819Y-78069502D01*
X57230517Y-78105812D01*
X57354999Y-78118072D01*
X57969249Y-78115000D01*
X58127999Y-77956250D01*
X58127999Y-76707000D01*
X56878749Y-76707000D01*
X56719999Y-76865750D01*
X56716927Y-77480000D01*
X55280000Y-77480000D01*
X55280000Y-75680000D01*
X56716927Y-75680000D01*
X56719999Y-76294250D01*
X56878749Y-76453000D01*
X58127999Y-76453000D01*
X58127999Y-75203750D01*
X57969249Y-75045000D01*
X57354999Y-75041928D01*
X57230517Y-75054188D01*
X57110819Y-75090498D01*
X57000505Y-75149463D01*
X56903814Y-75228815D01*
X56824462Y-75325506D01*
X56765497Y-75435820D01*
X56729187Y-75555518D01*
X56716927Y-75680000D01*
X55280000Y-75680000D01*
X55280000Y-71218591D01*
X55308877Y-71231740D01*
X55518109Y-71286575D01*
X55827999Y-71171853D01*
X55827999Y-69207000D01*
X56081999Y-69207000D01*
X56081999Y-71171853D01*
X56391889Y-71286575D01*
X56601121Y-71231740D01*
X56957766Y-71069339D01*
X57275875Y-70840480D01*
X57543224Y-70553959D01*
X57749538Y-70220786D01*
X57886889Y-69853765D01*
X57949999Y-69467000D01*
X57949999Y-69207000D01*
X63559999Y-69207000D01*
X63559999Y-69467000D01*
X63623109Y-69853765D01*
X63760460Y-70220786D01*
X63966774Y-70553959D01*
X64234123Y-70840480D01*
X64552232Y-71069339D01*
X64908877Y-71231740D01*
X65118109Y-71286575D01*
X65427999Y-71171853D01*
X65427999Y-69207000D01*
X65681999Y-69207000D01*
X65681999Y-71171853D01*
X65991889Y-71286575D01*
X66201121Y-71231740D01*
X66557766Y-71069339D01*
X66875875Y-70840480D01*
X67143224Y-70553959D01*
X67349538Y-70220786D01*
X67486889Y-69853765D01*
X67549999Y-69467000D01*
X67549999Y-69207000D01*
X65681999Y-69207000D01*
X65427999Y-69207000D01*
X63559999Y-69207000D01*
X57949999Y-69207000D01*
X56081999Y-69207000D01*
X55827999Y-69207000D01*
X55807999Y-69207000D01*
X55807999Y-68953000D01*
X55827999Y-68953000D01*
X55827999Y-66988147D01*
X56081999Y-66988147D01*
X56081999Y-68953000D01*
X57949999Y-68953000D01*
X57949999Y-68693000D01*
X63559999Y-68693000D01*
X63559999Y-68953000D01*
X65427999Y-68953000D01*
X65427999Y-66988147D01*
X65681999Y-66988147D01*
X65681999Y-68953000D01*
X67549999Y-68953000D01*
X67549999Y-68693000D01*
X67486889Y-68306235D01*
X67349538Y-67939214D01*
X67143224Y-67606041D01*
X66875875Y-67319520D01*
X66557766Y-67090661D01*
X66201121Y-66928260D01*
X65991889Y-66873425D01*
X65681999Y-66988147D01*
X65427999Y-66988147D01*
X65118109Y-66873425D01*
X64908877Y-66928260D01*
X64552232Y-67090661D01*
X64234123Y-67319520D01*
X63966774Y-67606041D01*
X63760460Y-67939214D01*
X63623109Y-68306235D01*
X63559999Y-68693000D01*
X57949999Y-68693000D01*
X57886889Y-68306235D01*
X57749538Y-67939214D01*
X57543224Y-67606041D01*
X57275875Y-67319520D01*
X56957766Y-67090661D01*
X56601121Y-66928260D01*
X56391889Y-66873425D01*
X56081999Y-66988147D01*
X55827999Y-66988147D01*
X55518109Y-66873425D01*
X55308877Y-66928260D01*
X55280000Y-66941409D01*
X55280000Y-65420000D01*
X68381928Y-65420000D01*
X68381928Y-67120000D01*
X68394188Y-67244482D01*
X68430498Y-67364180D01*
X68489463Y-67474494D01*
X68568815Y-67571185D01*
X68665506Y-67650537D01*
X68775820Y-67709502D01*
X68895518Y-67745812D01*
X69020000Y-67758072D01*
X69140001Y-67758072D01*
X69140000Y-68778588D01*
X69053169Y-68884392D01*
X68975722Y-69029284D01*
X68928031Y-69186500D01*
X68911928Y-69350000D01*
X68911928Y-69750000D01*
X68928031Y-69913500D01*
X68975722Y-70070716D01*
X69053169Y-70215608D01*
X69157394Y-70342606D01*
X69196866Y-70375000D01*
X69157394Y-70407394D01*
X69053169Y-70534392D01*
X68975722Y-70679284D01*
X68928031Y-70836500D01*
X68911928Y-71000000D01*
X68911928Y-71400000D01*
X68928031Y-71563500D01*
X68975722Y-71720716D01*
X69053169Y-71865608D01*
X69135001Y-71965320D01*
X69135000Y-73560446D01*
X69060713Y-73634733D01*
X68925557Y-73837008D01*
X68832460Y-74061764D01*
X68785000Y-74300363D01*
X68785000Y-74543637D01*
X68832460Y-74782236D01*
X68925557Y-75006992D01*
X69060713Y-75209267D01*
X69135001Y-75283555D01*
X69135000Y-81441493D01*
X69130719Y-81484962D01*
X69135000Y-81528431D01*
X69135000Y-81528438D01*
X69147805Y-81658451D01*
X69198411Y-81825274D01*
X69280589Y-81979020D01*
X69391183Y-82113779D01*
X69424956Y-82141496D01*
X70235001Y-82951542D01*
X70235001Y-83365571D01*
X70141637Y-83347000D01*
X69898363Y-83347000D01*
X69659764Y-83394460D01*
X69435008Y-83487557D01*
X69232733Y-83622713D01*
X69060713Y-83794733D01*
X68925557Y-83997008D01*
X68832460Y-84221764D01*
X68785000Y-84460363D01*
X68785000Y-84703637D01*
X68832460Y-84942236D01*
X68925557Y-85166992D01*
X69060713Y-85369267D01*
X69135001Y-85443555D01*
X69135001Y-86092523D01*
X69130719Y-86136002D01*
X69147805Y-86309492D01*
X69198412Y-86476315D01*
X69280590Y-86630061D01*
X69363468Y-86731048D01*
X69363471Y-86731051D01*
X69391184Y-86764819D01*
X69424951Y-86792531D01*
X69959469Y-87327050D01*
X69987182Y-87360818D01*
X70020950Y-87388531D01*
X70020952Y-87388533D01*
X70121939Y-87471411D01*
X70121940Y-87471412D01*
X70275686Y-87553590D01*
X70442509Y-87604196D01*
X70572522Y-87617001D01*
X70572530Y-87617001D01*
X70615999Y-87621282D01*
X70659468Y-87617001D01*
X73484530Y-87617001D01*
X73527999Y-87621282D01*
X73571468Y-87617001D01*
X73571476Y-87617001D01*
X73701489Y-87604196D01*
X73868312Y-87553590D01*
X74022058Y-87471412D01*
X74156816Y-87360818D01*
X74184533Y-87327045D01*
X76886578Y-84625001D01*
X79589533Y-84625001D01*
X79633002Y-84629282D01*
X79676471Y-84625001D01*
X79676479Y-84625001D01*
X79806492Y-84612196D01*
X79973315Y-84561590D01*
X80127061Y-84479412D01*
X80261819Y-84368818D01*
X80289536Y-84335045D01*
X80840196Y-83784385D01*
X81037258Y-83866011D01*
X81333817Y-83925000D01*
X81636185Y-83925000D01*
X81932744Y-83866011D01*
X82212096Y-83750299D01*
X82463506Y-83582312D01*
X82501121Y-83544697D01*
X82554464Y-83644494D01*
X82633816Y-83741185D01*
X82730507Y-83820537D01*
X82840821Y-83879502D01*
X82960519Y-83915812D01*
X83085001Y-83928072D01*
X84885001Y-83928072D01*
X85009483Y-83915812D01*
X85129181Y-83879502D01*
X85239495Y-83820537D01*
X85336186Y-83741185D01*
X85415538Y-83644494D01*
X85474503Y-83534180D01*
X85510813Y-83414482D01*
X85523073Y-83290000D01*
X85523073Y-81490000D01*
X85510813Y-81365518D01*
X85474503Y-81245820D01*
X85415538Y-81135506D01*
X85336186Y-81038815D01*
X85239495Y-80959463D01*
X85129181Y-80900498D01*
X85009483Y-80864188D01*
X84885001Y-80851928D01*
X83085001Y-80851928D01*
X82960519Y-80864188D01*
X82840821Y-80900498D01*
X82730507Y-80959463D01*
X82633816Y-81038815D01*
X82554464Y-81135506D01*
X82501121Y-81235303D01*
X82463506Y-81197688D01*
X82212096Y-81029701D01*
X81932744Y-80913989D01*
X81636185Y-80855000D01*
X81333817Y-80855000D01*
X81037258Y-80913989D01*
X80757906Y-81029701D01*
X80506496Y-81197688D01*
X80292689Y-81411495D01*
X80235001Y-81497831D01*
X80177313Y-81411495D01*
X79963506Y-81197688D01*
X79712096Y-81029701D01*
X79432744Y-80913989D01*
X79136185Y-80855000D01*
X78833817Y-80855000D01*
X78537258Y-80913989D01*
X78257906Y-81029701D01*
X78006496Y-81197688D01*
X77792689Y-81411495D01*
X77624702Y-81662905D01*
X77508990Y-81942257D01*
X77450001Y-82238816D01*
X77450001Y-82541184D01*
X77508990Y-82837743D01*
X77516139Y-82855001D01*
X76563468Y-82855001D01*
X76519999Y-82850720D01*
X76476530Y-82855001D01*
X76476522Y-82855001D01*
X76361305Y-82866349D01*
X76346508Y-82867806D01*
X76295902Y-82883158D01*
X76179686Y-82918412D01*
X76025940Y-83000590D01*
X76025938Y-83000591D01*
X76025939Y-83000591D01*
X75924952Y-83083469D01*
X75924950Y-83083471D01*
X75891182Y-83111184D01*
X75863469Y-83144952D01*
X73161421Y-85847001D01*
X72346374Y-85847001D01*
X72352783Y-85814783D01*
X72580236Y-85769540D01*
X72804992Y-85676443D01*
X73007267Y-85541287D01*
X73179287Y-85369267D01*
X73314443Y-85166992D01*
X73407540Y-84942236D01*
X73455000Y-84703637D01*
X73455000Y-84460363D01*
X73407540Y-84221764D01*
X73314443Y-83997008D01*
X73179287Y-83794733D01*
X73105000Y-83720446D01*
X73105000Y-83171578D01*
X75861579Y-80415000D01*
X82151531Y-80415000D01*
X82195000Y-80419281D01*
X82238469Y-80415000D01*
X82238477Y-80415000D01*
X82368490Y-80402195D01*
X82535313Y-80351589D01*
X82689059Y-80269411D01*
X82823817Y-80158817D01*
X82851534Y-80125044D01*
X84580051Y-78396528D01*
X84613818Y-78368816D01*
X84668917Y-78301679D01*
X84724412Y-78234058D01*
X84806590Y-78080313D01*
X84857196Y-77913489D01*
X84859944Y-77885590D01*
X84864591Y-77838405D01*
X84963506Y-77772312D01*
X85177313Y-77558505D01*
X85345300Y-77307095D01*
X85461012Y-77027743D01*
X85520001Y-76731184D01*
X85520001Y-76428816D01*
X85461012Y-76132257D01*
X85345300Y-75852905D01*
X85177313Y-75601495D01*
X84963506Y-75387688D01*
X84712096Y-75219701D01*
X84432744Y-75103989D01*
X84136185Y-75045000D01*
X83833817Y-75045000D01*
X83537258Y-75103989D01*
X83257906Y-75219701D01*
X83006496Y-75387688D01*
X82792689Y-75601495D01*
X82735001Y-75687831D01*
X82677313Y-75601495D01*
X82463506Y-75387688D01*
X82212096Y-75219701D01*
X81932744Y-75103989D01*
X81636185Y-75045000D01*
X81333817Y-75045000D01*
X81037258Y-75103989D01*
X80757906Y-75219701D01*
X80506496Y-75387688D01*
X80468881Y-75425303D01*
X80415538Y-75325506D01*
X80336186Y-75228815D01*
X80239495Y-75149463D01*
X80129181Y-75090498D01*
X80009483Y-75054188D01*
X79885001Y-75041928D01*
X79270751Y-75045000D01*
X79112001Y-75203750D01*
X79112001Y-76453000D01*
X79132001Y-76453000D01*
X79132001Y-76707000D01*
X79112001Y-76707000D01*
X79112001Y-77956250D01*
X79270751Y-78115000D01*
X79885001Y-78118072D01*
X80009483Y-78105812D01*
X80129181Y-78069502D01*
X80239495Y-78010537D01*
X80336186Y-77931185D01*
X80415538Y-77834494D01*
X80468881Y-77734697D01*
X80506496Y-77772312D01*
X80757906Y-77940299D01*
X81037258Y-78056011D01*
X81333817Y-78115000D01*
X81636185Y-78115000D01*
X81932744Y-78056011D01*
X82212096Y-77940299D01*
X82463506Y-77772312D01*
X82677313Y-77558505D01*
X82735001Y-77472169D01*
X82792689Y-77558505D01*
X82853803Y-77619619D01*
X81828422Y-78645000D01*
X75594239Y-78645000D01*
X75500000Y-78635719D01*
X75326510Y-78652805D01*
X75159686Y-78703411D01*
X75005941Y-78785589D01*
X74904953Y-78868468D01*
X74877067Y-78896354D01*
X74871183Y-78901183D01*
X74866354Y-78907067D01*
X72275000Y-81498422D01*
X72005000Y-81228422D01*
X72005000Y-81126411D01*
X72091831Y-81020608D01*
X72169278Y-80875716D01*
X72216969Y-80718500D01*
X72233072Y-80555000D01*
X72233072Y-80155000D01*
X72216969Y-79991500D01*
X72169278Y-79834284D01*
X72091831Y-79689392D01*
X71987606Y-79562394D01*
X71948134Y-79530000D01*
X71987606Y-79497606D01*
X72091831Y-79370608D01*
X72169278Y-79225716D01*
X72216969Y-79068500D01*
X72233072Y-78905000D01*
X72233072Y-78505000D01*
X72218299Y-78355000D01*
X73781546Y-78355000D01*
X73829744Y-78387205D01*
X74018102Y-78465226D01*
X74218061Y-78505000D01*
X74421939Y-78505000D01*
X74621898Y-78465226D01*
X74810256Y-78387205D01*
X74979774Y-78273937D01*
X75123937Y-78129774D01*
X75237205Y-77960256D01*
X75315226Y-77771898D01*
X75355000Y-77571939D01*
X75355000Y-77480000D01*
X77446929Y-77480000D01*
X77459189Y-77604482D01*
X77495499Y-77724180D01*
X77554464Y-77834494D01*
X77633816Y-77931185D01*
X77730507Y-78010537D01*
X77840821Y-78069502D01*
X77960519Y-78105812D01*
X78085001Y-78118072D01*
X78699251Y-78115000D01*
X78858001Y-77956250D01*
X78858001Y-76707000D01*
X77608751Y-76707000D01*
X77450001Y-76865750D01*
X77446929Y-77480000D01*
X75355000Y-77480000D01*
X75355000Y-77368061D01*
X75315226Y-77168102D01*
X75237205Y-76979744D01*
X75123937Y-76810226D01*
X74979774Y-76666063D01*
X74810256Y-76552795D01*
X74621898Y-76474774D01*
X74421939Y-76435000D01*
X74218061Y-76435000D01*
X74018102Y-76474774D01*
X73829744Y-76552795D01*
X73781546Y-76585000D01*
X72005000Y-76585000D01*
X72005000Y-76383554D01*
X72079287Y-76309267D01*
X72214443Y-76106992D01*
X72307540Y-75882236D01*
X72347766Y-75680000D01*
X77446929Y-75680000D01*
X77450001Y-76294250D01*
X77608751Y-76453000D01*
X78858001Y-76453000D01*
X78858001Y-75203750D01*
X78699251Y-75045000D01*
X78085001Y-75041928D01*
X77960519Y-75054188D01*
X77840821Y-75090498D01*
X77730507Y-75149463D01*
X77633816Y-75228815D01*
X77554464Y-75325506D01*
X77495499Y-75435820D01*
X77459189Y-75555518D01*
X77446929Y-75680000D01*
X72347766Y-75680000D01*
X72355000Y-75643637D01*
X72355000Y-75496903D01*
X72537610Y-75615467D01*
X72764341Y-75530572D01*
X72970153Y-75403075D01*
X73147137Y-75237876D01*
X73288492Y-75041324D01*
X73388785Y-74820971D01*
X73413462Y-74739609D01*
X73288731Y-74549000D01*
X72347000Y-74549000D01*
X72347000Y-74569000D01*
X72093000Y-74569000D01*
X72093000Y-74549000D01*
X72073000Y-74549000D01*
X72073000Y-74295000D01*
X72093000Y-74295000D01*
X72093000Y-73352291D01*
X72347000Y-73352291D01*
X72347000Y-74295000D01*
X73288731Y-74295000D01*
X73413462Y-74104391D01*
X73388785Y-74023029D01*
X73288492Y-73802676D01*
X73147137Y-73606124D01*
X72970153Y-73440925D01*
X72764341Y-73313428D01*
X72537610Y-73228533D01*
X72347000Y-73352291D01*
X72093000Y-73352291D01*
X71902390Y-73228533D01*
X71675659Y-73313428D01*
X71469847Y-73440925D01*
X71292863Y-73606124D01*
X71151508Y-73802676D01*
X71124658Y-73861669D01*
X71114443Y-73837008D01*
X70979287Y-73634733D01*
X70905000Y-73560446D01*
X70905000Y-71977504D01*
X70996831Y-71865608D01*
X71074278Y-71720716D01*
X71121969Y-71563500D01*
X71138072Y-71400000D01*
X71138072Y-71000000D01*
X71121969Y-70836500D01*
X71074278Y-70679284D01*
X70996831Y-70534392D01*
X70892606Y-70407394D01*
X70853134Y-70375000D01*
X70892606Y-70342606D01*
X70996831Y-70215608D01*
X71074278Y-70070716D01*
X71121969Y-69913500D01*
X71138072Y-69750000D01*
X71138072Y-69350000D01*
X71123989Y-69207000D01*
X74690001Y-69207000D01*
X74690001Y-69467000D01*
X74753111Y-69853765D01*
X74890462Y-70220786D01*
X75096776Y-70553959D01*
X75364125Y-70840480D01*
X75682234Y-71069339D01*
X76038879Y-71231740D01*
X76248111Y-71286575D01*
X76558001Y-71171853D01*
X76558001Y-69207000D01*
X76812001Y-69207000D01*
X76812001Y-71171853D01*
X77121891Y-71286575D01*
X77331123Y-71231740D01*
X77687768Y-71069339D01*
X78005877Y-70840480D01*
X78273226Y-70553959D01*
X78479540Y-70220786D01*
X78616891Y-69853765D01*
X78680001Y-69467000D01*
X78680001Y-69207000D01*
X84290001Y-69207000D01*
X84290001Y-69467000D01*
X84353111Y-69853765D01*
X84490462Y-70220786D01*
X84696776Y-70553959D01*
X84964125Y-70840480D01*
X85282234Y-71069339D01*
X85638879Y-71231740D01*
X85848111Y-71286575D01*
X86158001Y-71171853D01*
X86158001Y-69207000D01*
X84290001Y-69207000D01*
X78680001Y-69207000D01*
X76812001Y-69207000D01*
X76558001Y-69207000D01*
X74690001Y-69207000D01*
X71123989Y-69207000D01*
X71121969Y-69186500D01*
X71074278Y-69029284D01*
X70996831Y-68884392D01*
X70910000Y-68778589D01*
X70910000Y-68693000D01*
X74690001Y-68693000D01*
X74690001Y-68953000D01*
X76558001Y-68953000D01*
X76558001Y-66988147D01*
X76812001Y-66988147D01*
X76812001Y-68953000D01*
X78680001Y-68953000D01*
X78680001Y-68693000D01*
X84290001Y-68693000D01*
X84290001Y-68953000D01*
X86158001Y-68953000D01*
X86158001Y-66988147D01*
X85848111Y-66873425D01*
X85638879Y-66928260D01*
X85282234Y-67090661D01*
X84964125Y-67319520D01*
X84696776Y-67606041D01*
X84490462Y-67939214D01*
X84353111Y-68306235D01*
X84290001Y-68693000D01*
X78680001Y-68693000D01*
X78616891Y-68306235D01*
X78479540Y-67939214D01*
X78273226Y-67606041D01*
X78005877Y-67319520D01*
X77687768Y-67090661D01*
X77331123Y-66928260D01*
X77121891Y-66873425D01*
X76812001Y-66988147D01*
X76558001Y-66988147D01*
X76248111Y-66873425D01*
X76038879Y-66928260D01*
X75682234Y-67090661D01*
X75364125Y-67319520D01*
X75096776Y-67606041D01*
X74890462Y-67939214D01*
X74753111Y-68306235D01*
X74690001Y-68693000D01*
X70910000Y-68693000D01*
X70910000Y-67725937D01*
X70964180Y-67709502D01*
X71074494Y-67650537D01*
X71171185Y-67571185D01*
X71250537Y-67474494D01*
X71309502Y-67364180D01*
X71333966Y-67283534D01*
X71409731Y-67367588D01*
X71643080Y-67541641D01*
X71905901Y-67666825D01*
X72053110Y-67711476D01*
X72283000Y-67590155D01*
X72283000Y-66397000D01*
X72537000Y-66397000D01*
X72537000Y-67590155D01*
X72766890Y-67711476D01*
X72914099Y-67666825D01*
X73176920Y-67541641D01*
X73410269Y-67367588D01*
X73605178Y-67151355D01*
X73754157Y-66901252D01*
X73851481Y-66626891D01*
X73730814Y-66397000D01*
X72537000Y-66397000D01*
X72283000Y-66397000D01*
X72263000Y-66397000D01*
X72263000Y-66143000D01*
X72283000Y-66143000D01*
X72283000Y-64949845D01*
X72537000Y-64949845D01*
X72537000Y-66143000D01*
X73730814Y-66143000D01*
X73851481Y-65913109D01*
X73754157Y-65638748D01*
X73605178Y-65388645D01*
X73410269Y-65172412D01*
X73176920Y-64998359D01*
X72914099Y-64873175D01*
X72766890Y-64828524D01*
X72537000Y-64949845D01*
X72283000Y-64949845D01*
X72053110Y-64828524D01*
X71905901Y-64873175D01*
X71643080Y-64998359D01*
X71409731Y-65172412D01*
X71333966Y-65256466D01*
X71309502Y-65175820D01*
X71250537Y-65065506D01*
X71171185Y-64968815D01*
X71074494Y-64889463D01*
X70964180Y-64830498D01*
X70844482Y-64794188D01*
X70720000Y-64781928D01*
X69020000Y-64781928D01*
X68895518Y-64794188D01*
X68775820Y-64830498D01*
X68665506Y-64889463D01*
X68568815Y-64968815D01*
X68489463Y-65065506D01*
X68430498Y-65175820D01*
X68394188Y-65295518D01*
X68381928Y-65420000D01*
X55280000Y-65420000D01*
X55280000Y-63690000D01*
X56902419Y-63690000D01*
X56932753Y-63687012D01*
X56957743Y-63687187D01*
X56966914Y-63686287D01*
X57743302Y-63604685D01*
X57801871Y-63592662D01*
X57860657Y-63581449D01*
X57869479Y-63578785D01*
X58615229Y-63347937D01*
X58670359Y-63324762D01*
X58725838Y-63302348D01*
X58733974Y-63298021D01*
X59420684Y-62926718D01*
X59470268Y-62893273D01*
X59520331Y-62860513D01*
X59527472Y-62854689D01*
X60128983Y-62357076D01*
X60171140Y-62314624D01*
X60213873Y-62272777D01*
X60219741Y-62265682D01*
X60219747Y-62265676D01*
X60219751Y-62265669D01*
X60713148Y-61660706D01*
X60746230Y-61610913D01*
X60780048Y-61561524D01*
X60784430Y-61553417D01*
X61150930Y-60864133D01*
X61173729Y-60808818D01*
X61197290Y-60753846D01*
X61200015Y-60745043D01*
X61425652Y-59997698D01*
X61437277Y-59938989D01*
X61449708Y-59880506D01*
X61450671Y-59871341D01*
X61526850Y-59094404D01*
X61526850Y-59094402D01*
X61530000Y-59062419D01*
X61530000Y-57440000D01*
X80710001Y-57440000D01*
X80710000Y-59062418D01*
%TA.AperFunction,Conductor*%
D25*
G36*
X80710000Y-59062418D02*
G01*
X80712988Y-59092752D01*
X80712813Y-59117743D01*
X80713713Y-59126914D01*
X80795315Y-59903302D01*
X80807338Y-59961871D01*
X80818551Y-60020657D01*
X80821215Y-60029479D01*
X81052063Y-60775229D01*
X81075238Y-60830359D01*
X81097652Y-60885838D01*
X81101979Y-60893974D01*
X81473282Y-61580684D01*
X81506727Y-61630268D01*
X81539487Y-61680331D01*
X81545311Y-61687472D01*
X82042924Y-62288983D01*
X82085376Y-62331140D01*
X82127223Y-62373873D01*
X82134318Y-62379741D01*
X82134324Y-62379747D01*
X82134331Y-62379751D01*
X82739294Y-62873148D01*
X82789087Y-62906230D01*
X82838476Y-62940048D01*
X82846583Y-62944430D01*
X83535867Y-63310930D01*
X83591182Y-63333729D01*
X83646154Y-63357290D01*
X83654957Y-63360015D01*
X84402302Y-63585652D01*
X84461011Y-63597277D01*
X84519494Y-63609708D01*
X84528657Y-63610671D01*
X84528659Y-63610671D01*
X85305596Y-63686850D01*
X85305598Y-63686850D01*
X85337581Y-63690000D01*
X86960001Y-63690000D01*
X86960001Y-66941410D01*
X86931123Y-66928260D01*
X86721891Y-66873425D01*
X86412001Y-66988147D01*
X86412001Y-68953000D01*
X86432001Y-68953000D01*
X86432001Y-69207000D01*
X86412001Y-69207000D01*
X86412001Y-71171853D01*
X86721891Y-71286575D01*
X86931123Y-71231740D01*
X86960001Y-71218590D01*
X86960001Y-87751410D01*
X86931123Y-87738260D01*
X86721891Y-87683425D01*
X86412001Y-87798147D01*
X86412001Y-89763000D01*
X86432001Y-89763000D01*
X86432001Y-90017000D01*
X86412001Y-90017000D01*
X86412001Y-91981853D01*
X86721891Y-92096575D01*
X86931123Y-92041740D01*
X86960001Y-92028590D01*
X86960000Y-131364963D01*
X86808158Y-131302068D01*
X86521260Y-131245000D01*
X86228740Y-131245000D01*
X85941842Y-131302068D01*
X85671589Y-131414010D01*
X85428368Y-131576525D01*
X85221525Y-131783368D01*
X85059010Y-132026589D01*
X84947068Y-132296842D01*
X84890000Y-132583740D01*
X84890000Y-132876260D01*
X84947068Y-133163158D01*
X85059010Y-133433411D01*
X85221525Y-133676632D01*
X85428368Y-133883475D01*
X85671589Y-134045990D01*
X85911479Y-134145355D01*
X85721589Y-134224010D01*
X85478368Y-134386525D01*
X85271525Y-134593368D01*
X85109010Y-134836589D01*
X84997068Y-135106842D01*
X84940000Y-135393740D01*
X84940000Y-135686260D01*
X84997068Y-135973158D01*
X85109010Y-136243411D01*
X85271525Y-136486632D01*
X85478368Y-136693475D01*
X85721589Y-136855990D01*
X85991842Y-136967932D01*
X86002238Y-136970000D01*
X82050000Y-136970000D01*
X82050000Y-135408514D01*
X82055000Y-135408514D01*
X82055000Y-135671486D01*
X82106304Y-135929405D01*
X82206939Y-136172359D01*
X82353038Y-136391013D01*
X82538987Y-136576962D01*
X82757641Y-136723061D01*
X83000595Y-136823696D01*
X83258514Y-136875000D01*
X83521486Y-136875000D01*
X83779405Y-136823696D01*
X84022359Y-136723061D01*
X84241013Y-136576962D01*
X84426962Y-136391013D01*
X84573061Y-136172359D01*
X84673696Y-135929405D01*
X84725000Y-135671486D01*
X84725000Y-135408514D01*
X84673696Y-135150595D01*
X84573061Y-134907641D01*
X84426962Y-134688987D01*
X84241013Y-134503038D01*
X84022359Y-134356939D01*
X83779405Y-134256304D01*
X83521486Y-134205000D01*
X83258514Y-134205000D01*
X83000595Y-134256304D01*
X82757641Y-134356939D01*
X82538987Y-134503038D01*
X82353038Y-134688987D01*
X82206939Y-134907641D01*
X82106304Y-135150595D01*
X82055000Y-135408514D01*
X82050000Y-135408514D01*
X82050000Y-133609924D01*
X82145010Y-133619282D01*
X82188486Y-133615000D01*
X82387025Y-133615000D01*
X82538987Y-133766962D01*
X82757641Y-133913061D01*
X83000595Y-134013696D01*
X83258514Y-134065000D01*
X83521486Y-134065000D01*
X83779405Y-134013696D01*
X84022359Y-133913061D01*
X84241013Y-133766962D01*
X84426962Y-133581013D01*
X84573061Y-133362359D01*
X84673696Y-133119405D01*
X84725000Y-132861486D01*
X84725000Y-132598514D01*
X84673696Y-132340595D01*
X84573061Y-132097641D01*
X84426962Y-131878987D01*
X84241013Y-131693038D01*
X84022359Y-131546939D01*
X83779405Y-131446304D01*
X83521486Y-131395000D01*
X83258514Y-131395000D01*
X83030010Y-131440453D01*
X83030010Y-126388476D01*
X83034291Y-126345009D01*
X83030010Y-126301543D01*
X83030010Y-126301533D01*
X83017205Y-126171520D01*
X82966599Y-126004697D01*
X82884421Y-125850951D01*
X82773827Y-125716193D01*
X82740059Y-125688480D01*
X80376534Y-123324956D01*
X80348817Y-123291183D01*
X80214059Y-123180589D01*
X80060313Y-123098411D01*
X79893490Y-123047805D01*
X79763477Y-123035000D01*
X79763469Y-123035000D01*
X79720000Y-123030719D01*
X79676531Y-123035000D01*
X73674328Y-123035000D01*
X73622012Y-122908698D01*
X73388363Y-122559017D01*
X73090983Y-122261637D01*
X72741302Y-122027988D01*
X72615000Y-121975672D01*
X72615000Y-114434328D01*
X72741302Y-114382012D01*
X73090983Y-114148363D01*
X73388363Y-113850983D01*
X73622012Y-113501302D01*
X73782953Y-113112756D01*
X73865000Y-112700279D01*
X73865000Y-112279721D01*
X73782953Y-111867244D01*
X73622012Y-111478698D01*
X73388363Y-111129017D01*
X73090983Y-110831637D01*
X72741302Y-110597988D01*
X72352756Y-110437047D01*
X71940279Y-110355000D01*
X71519721Y-110355000D01*
X71107244Y-110437047D01*
X70718698Y-110597988D01*
X70369017Y-110831637D01*
X70071637Y-111129017D01*
X69837988Y-111478698D01*
X69677047Y-111867244D01*
X69595000Y-112279721D01*
X69595000Y-112700279D01*
X69601923Y-112735085D01*
X69591302Y-112727988D01*
X69202756Y-112567047D01*
X68790279Y-112485000D01*
X68369721Y-112485000D01*
X67957244Y-112567047D01*
X67568698Y-112727988D01*
X67500413Y-112773615D01*
X67515000Y-112700279D01*
X67515000Y-112279721D01*
X67432953Y-111867244D01*
X67272012Y-111478698D01*
X67038363Y-111129017D01*
X66740983Y-110831637D01*
X66391302Y-110597988D01*
X66002756Y-110437047D01*
X65590279Y-110355000D01*
X65169721Y-110355000D01*
X64757244Y-110437047D01*
X64368698Y-110597988D01*
X64019017Y-110831637D01*
X63721637Y-111129017D01*
X63504328Y-111454244D01*
X63499987Y-111447748D01*
X63272252Y-111220013D01*
X63004463Y-111041082D01*
X62706912Y-110917832D01*
X62391033Y-110855000D01*
X62068967Y-110855000D01*
X61753088Y-110917832D01*
X61455537Y-111041082D01*
X61187748Y-111220013D01*
X60960013Y-111447748D01*
X60925579Y-111499283D01*
X60837214Y-111333962D01*
X60521653Y-111177952D01*
X59209605Y-112490000D01*
X60521653Y-113802048D01*
X60837214Y-113646038D01*
X60923196Y-113477151D01*
X60960013Y-113532252D01*
X61187748Y-113759987D01*
X61455537Y-113938918D01*
X61753088Y-114062168D01*
X62068967Y-114125000D01*
X62391033Y-114125000D01*
X62706912Y-114062168D01*
X63004463Y-113938918D01*
X63272252Y-113759987D01*
X63499987Y-113532252D01*
X63504328Y-113525756D01*
X63721637Y-113850983D01*
X64019017Y-114148363D01*
X64368698Y-114382012D01*
X64757244Y-114542953D01*
X65169721Y-114625000D01*
X65590279Y-114625000D01*
X66002756Y-114542953D01*
X66391302Y-114382012D01*
X66459587Y-114336385D01*
X66445000Y-114409721D01*
X66445000Y-114830279D01*
X66527047Y-115242756D01*
X66687988Y-115631302D01*
X66921637Y-115980983D01*
X67219017Y-116278363D01*
X67568698Y-116512012D01*
X67957244Y-116672953D01*
X68369721Y-116755000D01*
X68790279Y-116755000D01*
X69202756Y-116672953D01*
X69591302Y-116512012D01*
X69940983Y-116278363D01*
X70238363Y-115980983D01*
X70472012Y-115631302D01*
X70632953Y-115242756D01*
X70715000Y-114830279D01*
X70715000Y-114409721D01*
X70708077Y-114374915D01*
X70718698Y-114382012D01*
X70845000Y-114434328D01*
X70845001Y-121975672D01*
X70718698Y-122027988D01*
X70369017Y-122261637D01*
X70071637Y-122559017D01*
X69837988Y-122908698D01*
X69677047Y-123297244D01*
X69595000Y-123709721D01*
X69595000Y-124130279D01*
X69677047Y-124542756D01*
X69837988Y-124931302D01*
X70071637Y-125280983D01*
X70369017Y-125578363D01*
X70718698Y-125812012D01*
X71107244Y-125972953D01*
X71519721Y-126055000D01*
X71940279Y-126055000D01*
X72352756Y-125972953D01*
X72741302Y-125812012D01*
X73090983Y-125578363D01*
X73388363Y-125280983D01*
X73622012Y-124931302D01*
X73674328Y-124805000D01*
X79353422Y-124805000D01*
X80639744Y-126091323D01*
X80454405Y-126073150D01*
X80454402Y-126073150D01*
X80422419Y-126070000D01*
X61817581Y-126070000D01*
X61789326Y-126072783D01*
X61783199Y-126072740D01*
X61774028Y-126073640D01*
X61579931Y-126094041D01*
X61521348Y-126106066D01*
X61462577Y-126117277D01*
X61453755Y-126119941D01*
X61267317Y-126177653D01*
X61212162Y-126200838D01*
X61156709Y-126223242D01*
X61148573Y-126227568D01*
X60976896Y-126320393D01*
X60927278Y-126353861D01*
X60877247Y-126386600D01*
X60870106Y-126392424D01*
X60719728Y-126516828D01*
X60677589Y-126559263D01*
X60634839Y-126601126D01*
X60628966Y-126608227D01*
X60505616Y-126759469D01*
X60472534Y-126809262D01*
X60438716Y-126858651D01*
X60434333Y-126866757D01*
X60342708Y-127039079D01*
X60319909Y-127094394D01*
X60296348Y-127149366D01*
X60293623Y-127158169D01*
X60237214Y-127345005D01*
X60225594Y-127403693D01*
X60213158Y-127462196D01*
X60212195Y-127471361D01*
X60193150Y-127665595D01*
X60193150Y-127665608D01*
X60190001Y-127697581D01*
X60190000Y-136970000D01*
X55280000Y-136970000D01*
X55280000Y-136461269D01*
X57988336Y-136461269D01*
X58047797Y-136695037D01*
X58286242Y-136805934D01*
X58541740Y-136868183D01*
X58804473Y-136879390D01*
X59064344Y-136839125D01*
X59311366Y-136748935D01*
X59412203Y-136695037D01*
X59471664Y-136461269D01*
X58730000Y-135719605D01*
X57988336Y-136461269D01*
X55280000Y-136461269D01*
X55280000Y-135614473D01*
X57390610Y-135614473D01*
X57430875Y-135874344D01*
X57521065Y-136121366D01*
X57574963Y-136222203D01*
X57808731Y-136281664D01*
X58550395Y-135540000D01*
X58909605Y-135540000D01*
X59651269Y-136281664D01*
X59885037Y-136222203D01*
X59995934Y-135983758D01*
X60058183Y-135728260D01*
X60069390Y-135465527D01*
X60029125Y-135205656D01*
X59938935Y-134958634D01*
X59885037Y-134857797D01*
X59651269Y-134798336D01*
X58909605Y-135540000D01*
X58550395Y-135540000D01*
X57808731Y-134798336D01*
X57574963Y-134857797D01*
X57464066Y-135096242D01*
X57401817Y-135351740D01*
X57390610Y-135614473D01*
X55280000Y-135614473D01*
X55280000Y-134618731D01*
X57988336Y-134618731D01*
X58730000Y-135360395D01*
X59471664Y-134618731D01*
X59412203Y-134384963D01*
X59173758Y-134274066D01*
X58918260Y-134211817D01*
X58655527Y-134200610D01*
X58395656Y-134240875D01*
X58148634Y-134331065D01*
X58047797Y-134384963D01*
X57988336Y-134618731D01*
X55280000Y-134618731D01*
X55280000Y-132666568D01*
X55938480Y-133325049D01*
X55966193Y-133358817D01*
X55999961Y-133386530D01*
X55999963Y-133386532D01*
X56057085Y-133433411D01*
X56100951Y-133469411D01*
X56254697Y-133551589D01*
X56421520Y-133602195D01*
X56551533Y-133615000D01*
X56551543Y-133615000D01*
X56595009Y-133619281D01*
X56638475Y-133615000D01*
X57727025Y-133615000D01*
X57878987Y-133766962D01*
X58097641Y-133913061D01*
X58340595Y-134013696D01*
X58598514Y-134065000D01*
X58861486Y-134065000D01*
X59119405Y-134013696D01*
X59362359Y-133913061D01*
X59581013Y-133766962D01*
X59766962Y-133581013D01*
X59913061Y-133362359D01*
X60013696Y-133119405D01*
X60065000Y-132861486D01*
X60065000Y-132598514D01*
X60013696Y-132340595D01*
X59913061Y-132097641D01*
X59766962Y-131878987D01*
X59581013Y-131693038D01*
X59362359Y-131546939D01*
X59119405Y-131446304D01*
X58861486Y-131395000D01*
X58598514Y-131395000D01*
X58340595Y-131446304D01*
X58097641Y-131546939D01*
X57878987Y-131693038D01*
X57727025Y-131845000D01*
X56961589Y-131845000D01*
X56145000Y-131028412D01*
X56145000Y-107770001D01*
X56190718Y-107770001D01*
X56195000Y-107813480D01*
X56194999Y-126136530D01*
X56190718Y-126179999D01*
X56194999Y-126223468D01*
X56194999Y-126223475D01*
X56204545Y-126320394D01*
X56207804Y-126353489D01*
X56218455Y-126388598D01*
X56258410Y-126520311D01*
X56340588Y-126674057D01*
X56451182Y-126808816D01*
X56484955Y-126836533D01*
X57845001Y-128196580D01*
X57845000Y-128917025D01*
X57693038Y-129068987D01*
X57546939Y-129287641D01*
X57446304Y-129530595D01*
X57395000Y-129788514D01*
X57395000Y-130051486D01*
X57446304Y-130309405D01*
X57546939Y-130552359D01*
X57693038Y-130771013D01*
X57878987Y-130956962D01*
X58097641Y-131103061D01*
X58340595Y-131203696D01*
X58598514Y-131255000D01*
X58861486Y-131255000D01*
X59119405Y-131203696D01*
X59362359Y-131103061D01*
X59581013Y-130956962D01*
X59766962Y-130771013D01*
X59913061Y-130552359D01*
X60013696Y-130309405D01*
X60065000Y-130051486D01*
X60065000Y-129788514D01*
X60013696Y-129530595D01*
X59913061Y-129287641D01*
X59766962Y-129068987D01*
X59615000Y-128917025D01*
X59615000Y-127873469D01*
X59619281Y-127830000D01*
X59615000Y-127786531D01*
X59615000Y-127786523D01*
X59602195Y-127656510D01*
X59551589Y-127489687D01*
X59469411Y-127335941D01*
X59453798Y-127316917D01*
X59386532Y-127234953D01*
X59386530Y-127234951D01*
X59358817Y-127201183D01*
X59325049Y-127173470D01*
X57964999Y-125813421D01*
X57964999Y-125773562D01*
X58248745Y-125918020D01*
X58653551Y-126032044D01*
X59072824Y-126064902D01*
X59490451Y-126015334D01*
X59890383Y-125885243D01*
X60186038Y-125727214D01*
X60342048Y-125411653D01*
X59030000Y-124099605D01*
X59015858Y-124113748D01*
X58836253Y-123934143D01*
X58850395Y-123920000D01*
X59209605Y-123920000D01*
X60521653Y-125232048D01*
X60837214Y-125076038D01*
X60923196Y-124907151D01*
X60960013Y-124962252D01*
X61187748Y-125189987D01*
X61455537Y-125368918D01*
X61753088Y-125492168D01*
X62068967Y-125555000D01*
X62391033Y-125555000D01*
X62706912Y-125492168D01*
X63004463Y-125368918D01*
X63272252Y-125189987D01*
X63499987Y-124962252D01*
X63504328Y-124955756D01*
X63721637Y-125280983D01*
X64019017Y-125578363D01*
X64368698Y-125812012D01*
X64757244Y-125972953D01*
X65169721Y-126055000D01*
X65590279Y-126055000D01*
X66002756Y-125972953D01*
X66391302Y-125812012D01*
X66740983Y-125578363D01*
X67038363Y-125280983D01*
X67272012Y-124931302D01*
X67432953Y-124542756D01*
X67515000Y-124130279D01*
X67515000Y-123709721D01*
X67432953Y-123297244D01*
X67272012Y-122908698D01*
X67038363Y-122559017D01*
X66740983Y-122261637D01*
X66391302Y-122027988D01*
X66002756Y-121867047D01*
X65590279Y-121785000D01*
X65169721Y-121785000D01*
X64757244Y-121867047D01*
X64368698Y-122027988D01*
X64019017Y-122261637D01*
X63721637Y-122559017D01*
X63504328Y-122884244D01*
X63499987Y-122877748D01*
X63272252Y-122650013D01*
X63004463Y-122471082D01*
X62706912Y-122347832D01*
X62391033Y-122285000D01*
X62068967Y-122285000D01*
X61753088Y-122347832D01*
X61455537Y-122471082D01*
X61187748Y-122650013D01*
X60960013Y-122877748D01*
X60925579Y-122929283D01*
X60837214Y-122763962D01*
X60521653Y-122607952D01*
X59209605Y-123920000D01*
X58850395Y-123920000D01*
X58836253Y-123905858D01*
X59015858Y-123726253D01*
X59030000Y-123740395D01*
X60342048Y-122428347D01*
X60186038Y-122112786D01*
X59811255Y-121921980D01*
X59406449Y-121807956D01*
X58987176Y-121775098D01*
X58569549Y-121824666D01*
X58169617Y-121954757D01*
X57964999Y-122064126D01*
X57964999Y-114343562D01*
X58248745Y-114488020D01*
X58653551Y-114602044D01*
X59072824Y-114634902D01*
X59490451Y-114585334D01*
X59890383Y-114455243D01*
X60186038Y-114297214D01*
X60342048Y-113981653D01*
X59030000Y-112669605D01*
X59015858Y-112683748D01*
X58836253Y-112504143D01*
X58850395Y-112490000D01*
X58836253Y-112475858D01*
X59015858Y-112296253D01*
X59030000Y-112310395D01*
X60342048Y-110998347D01*
X60186038Y-110682786D01*
X59811255Y-110491980D01*
X59406449Y-110377956D01*
X58987176Y-110345098D01*
X58569549Y-110394666D01*
X58169617Y-110524757D01*
X57964999Y-110634126D01*
X57964999Y-108136579D01*
X63266532Y-102835047D01*
X63266536Y-102835042D01*
X63850048Y-102251531D01*
X63883816Y-102223818D01*
X63911531Y-102190048D01*
X63916532Y-102185047D01*
X63999411Y-102084059D01*
X64081588Y-101930314D01*
X64132195Y-101763490D01*
X64149281Y-101590000D01*
X64139999Y-101495751D01*
X64139999Y-95649721D01*
X68355000Y-95649721D01*
X68355000Y-96070279D01*
X68437047Y-96482756D01*
X68597988Y-96871302D01*
X68831637Y-97220983D01*
X69129017Y-97518363D01*
X69478698Y-97752012D01*
X69605000Y-97804328D01*
X69605001Y-105345672D01*
X69478698Y-105397988D01*
X69129017Y-105631637D01*
X68831637Y-105929017D01*
X68597988Y-106278698D01*
X68437047Y-106667244D01*
X68355000Y-107079721D01*
X68355000Y-107500279D01*
X68437047Y-107912756D01*
X68597988Y-108301302D01*
X68831637Y-108650983D01*
X69129017Y-108948363D01*
X69478698Y-109182012D01*
X69867244Y-109342953D01*
X70279721Y-109425000D01*
X70700279Y-109425000D01*
X71112756Y-109342953D01*
X71501302Y-109182012D01*
X71850983Y-108948363D01*
X71938884Y-108860462D01*
X83620001Y-120541580D01*
X83620000Y-128942025D01*
X83468038Y-129093987D01*
X83321939Y-129312641D01*
X83221304Y-129555595D01*
X83170000Y-129813514D01*
X83170000Y-130076486D01*
X83221304Y-130334405D01*
X83321939Y-130577359D01*
X83468038Y-130796013D01*
X83653987Y-130981962D01*
X83872641Y-131128061D01*
X84115595Y-131228696D01*
X84373514Y-131280000D01*
X84636486Y-131280000D01*
X84894405Y-131228696D01*
X85137359Y-131128061D01*
X85356013Y-130981962D01*
X85541962Y-130796013D01*
X85688061Y-130577359D01*
X85788696Y-130334405D01*
X85840000Y-130076486D01*
X85840000Y-129813514D01*
X85788696Y-129555595D01*
X85688061Y-129312641D01*
X85541962Y-129093987D01*
X85390000Y-128942025D01*
X85390000Y-120218469D01*
X85394281Y-120175000D01*
X85390000Y-120131531D01*
X85390000Y-120131523D01*
X85377195Y-120001510D01*
X85326589Y-119834687D01*
X85244411Y-119680941D01*
X85133817Y-119546183D01*
X85100049Y-119518470D01*
X72637049Y-107055471D01*
X73017244Y-107212953D01*
X73429721Y-107295000D01*
X73850279Y-107295000D01*
X74262756Y-107212953D01*
X74651302Y-107052012D01*
X74719587Y-107006385D01*
X74705000Y-107079721D01*
X74705000Y-107500279D01*
X74787047Y-107912756D01*
X74947988Y-108301302D01*
X75181637Y-108650983D01*
X75479017Y-108948363D01*
X75828698Y-109182012D01*
X76217244Y-109342953D01*
X76629721Y-109425000D01*
X77050279Y-109425000D01*
X77462756Y-109342953D01*
X77851302Y-109182012D01*
X78200983Y-108948363D01*
X78498363Y-108650983D01*
X78715672Y-108325756D01*
X78720013Y-108332252D01*
X78947748Y-108559987D01*
X79215537Y-108738918D01*
X79513088Y-108862168D01*
X79828967Y-108925000D01*
X80151033Y-108925000D01*
X80466912Y-108862168D01*
X80661291Y-108781653D01*
X81877952Y-108781653D01*
X82033962Y-109097214D01*
X82408745Y-109288020D01*
X82813551Y-109402044D01*
X83232824Y-109434902D01*
X83650451Y-109385334D01*
X84050383Y-109255243D01*
X84346038Y-109097214D01*
X84502048Y-108781653D01*
X83190000Y-107469605D01*
X81877952Y-108781653D01*
X80661291Y-108781653D01*
X80764463Y-108738918D01*
X81032252Y-108559987D01*
X81259987Y-108332252D01*
X81294421Y-108280717D01*
X81382786Y-108446038D01*
X81698347Y-108602048D01*
X83010395Y-107290000D01*
X83369605Y-107290000D01*
X84681653Y-108602048D01*
X84997214Y-108446038D01*
X85188020Y-108071255D01*
X85302044Y-107666449D01*
X85334902Y-107247176D01*
X85285334Y-106829549D01*
X85155243Y-106429617D01*
X84997214Y-106133962D01*
X84681653Y-105977952D01*
X83369605Y-107290000D01*
X83010395Y-107290000D01*
X81698347Y-105977952D01*
X81382786Y-106133962D01*
X81296804Y-106302849D01*
X81259987Y-106247748D01*
X81032252Y-106020013D01*
X80764463Y-105841082D01*
X80661292Y-105798347D01*
X81877952Y-105798347D01*
X83190000Y-107110395D01*
X84502048Y-105798347D01*
X84346038Y-105482786D01*
X83971255Y-105291980D01*
X83566449Y-105177956D01*
X83147176Y-105145098D01*
X82729549Y-105194666D01*
X82329617Y-105324757D01*
X82033962Y-105482786D01*
X81877952Y-105798347D01*
X80661292Y-105798347D01*
X80466912Y-105717832D01*
X80151033Y-105655000D01*
X79828967Y-105655000D01*
X79513088Y-105717832D01*
X79215537Y-105841082D01*
X78947748Y-106020013D01*
X78720013Y-106247748D01*
X78715672Y-106254244D01*
X78498363Y-105929017D01*
X78200983Y-105631637D01*
X77851302Y-105397988D01*
X77462756Y-105237047D01*
X77050279Y-105155000D01*
X76629721Y-105155000D01*
X76217244Y-105237047D01*
X75828698Y-105397988D01*
X75760413Y-105443615D01*
X75775000Y-105370279D01*
X75775000Y-104949721D01*
X75692953Y-104537244D01*
X75532012Y-104148698D01*
X75298363Y-103799017D01*
X75000983Y-103501637D01*
X74651302Y-103267988D01*
X74262756Y-103107047D01*
X73850279Y-103025000D01*
X73429721Y-103025000D01*
X73017244Y-103107047D01*
X72628698Y-103267988D01*
X72279017Y-103501637D01*
X71981637Y-103799017D01*
X71747988Y-104148698D01*
X71587047Y-104537244D01*
X71505000Y-104949721D01*
X71505000Y-105370279D01*
X71511923Y-105405085D01*
X71501302Y-105397988D01*
X71375000Y-105345672D01*
X71375000Y-97804328D01*
X71501302Y-97752012D01*
X71850983Y-97518363D01*
X72148363Y-97220983D01*
X72382012Y-96871302D01*
X72542953Y-96482756D01*
X72625000Y-96070279D01*
X72625000Y-95649721D01*
X74705000Y-95649721D01*
X74705000Y-96070279D01*
X74787047Y-96482756D01*
X74947988Y-96871302D01*
X75181637Y-97220983D01*
X75479017Y-97518363D01*
X75828698Y-97752012D01*
X76217244Y-97912953D01*
X76629721Y-97995000D01*
X77050279Y-97995000D01*
X77462756Y-97912953D01*
X77851302Y-97752012D01*
X78200983Y-97518363D01*
X78498363Y-97220983D01*
X78715672Y-96895756D01*
X78720013Y-96902252D01*
X78947748Y-97129987D01*
X79215537Y-97308918D01*
X79513088Y-97432168D01*
X79828967Y-97495000D01*
X80151033Y-97495000D01*
X80466912Y-97432168D01*
X80661291Y-97351653D01*
X81877952Y-97351653D01*
X82033962Y-97667214D01*
X82408745Y-97858020D01*
X82813551Y-97972044D01*
X83232824Y-98004902D01*
X83650451Y-97955334D01*
X84050383Y-97825243D01*
X84346038Y-97667214D01*
X84502048Y-97351653D01*
X83190000Y-96039605D01*
X81877952Y-97351653D01*
X80661291Y-97351653D01*
X80764463Y-97308918D01*
X81032252Y-97129987D01*
X81259987Y-96902252D01*
X81294421Y-96850717D01*
X81382786Y-97016038D01*
X81698347Y-97172048D01*
X83010395Y-95860000D01*
X83369605Y-95860000D01*
X84681653Y-97172048D01*
X84997214Y-97016038D01*
X85188020Y-96641255D01*
X85302044Y-96236449D01*
X85334902Y-95817176D01*
X85285334Y-95399549D01*
X85155243Y-94999617D01*
X84997214Y-94703962D01*
X84681653Y-94547952D01*
X83369605Y-95860000D01*
X83010395Y-95860000D01*
X81698347Y-94547952D01*
X81382786Y-94703962D01*
X81296804Y-94872849D01*
X81259987Y-94817748D01*
X81032252Y-94590013D01*
X80764463Y-94411082D01*
X80661292Y-94368347D01*
X81877952Y-94368347D01*
X83190000Y-95680395D01*
X84502048Y-94368347D01*
X84346038Y-94052786D01*
X83971255Y-93861980D01*
X83566449Y-93747956D01*
X83147176Y-93715098D01*
X82729549Y-93764666D01*
X82329617Y-93894757D01*
X82033962Y-94052786D01*
X81877952Y-94368347D01*
X80661292Y-94368347D01*
X80466912Y-94287832D01*
X80151033Y-94225000D01*
X79828967Y-94225000D01*
X79513088Y-94287832D01*
X79215537Y-94411082D01*
X78947748Y-94590013D01*
X78720013Y-94817748D01*
X78715672Y-94824244D01*
X78498363Y-94499017D01*
X78200983Y-94201637D01*
X77851302Y-93967988D01*
X77462756Y-93807047D01*
X77050279Y-93725000D01*
X76629721Y-93725000D01*
X76217244Y-93807047D01*
X75828698Y-93967988D01*
X75479017Y-94201637D01*
X75181637Y-94499017D01*
X74947988Y-94848698D01*
X74787047Y-95237244D01*
X74705000Y-95649721D01*
X72625000Y-95649721D01*
X72542953Y-95237244D01*
X72382012Y-94848698D01*
X72148363Y-94499017D01*
X71850983Y-94201637D01*
X71501302Y-93967988D01*
X71112756Y-93807047D01*
X70700279Y-93725000D01*
X70279721Y-93725000D01*
X69867244Y-93807047D01*
X69478698Y-93967988D01*
X69129017Y-94201637D01*
X68831637Y-94499017D01*
X68597988Y-94848698D01*
X68437047Y-95237244D01*
X68355000Y-95649721D01*
X64139999Y-95649721D01*
X64139999Y-91549606D01*
X64234123Y-91650480D01*
X64552232Y-91879339D01*
X64908877Y-92041740D01*
X65118109Y-92096575D01*
X65427999Y-91981853D01*
X65427999Y-90017000D01*
X65681999Y-90017000D01*
X65681999Y-91981853D01*
X65991889Y-92096575D01*
X66201121Y-92041740D01*
X66557766Y-91879339D01*
X66875875Y-91650480D01*
X67143224Y-91363959D01*
X67349538Y-91030786D01*
X67486889Y-90663765D01*
X67549999Y-90277000D01*
X67549999Y-90017000D01*
X74690001Y-90017000D01*
X74690001Y-90277000D01*
X74753111Y-90663765D01*
X74890462Y-91030786D01*
X75096776Y-91363959D01*
X75364125Y-91650480D01*
X75682234Y-91879339D01*
X76038879Y-92041740D01*
X76248111Y-92096575D01*
X76558001Y-91981853D01*
X76558001Y-90017000D01*
X76812001Y-90017000D01*
X76812001Y-91981853D01*
X77121891Y-92096575D01*
X77331123Y-92041740D01*
X77687768Y-91879339D01*
X78005877Y-91650480D01*
X78273226Y-91363959D01*
X78479540Y-91030786D01*
X78616891Y-90663765D01*
X78680001Y-90277000D01*
X78680001Y-90017000D01*
X84290001Y-90017000D01*
X84290001Y-90277000D01*
X84353111Y-90663765D01*
X84490462Y-91030786D01*
X84696776Y-91363959D01*
X84964125Y-91650480D01*
X85282234Y-91879339D01*
X85638879Y-92041740D01*
X85848111Y-92096575D01*
X86158001Y-91981853D01*
X86158001Y-90017000D01*
X84290001Y-90017000D01*
X78680001Y-90017000D01*
X76812001Y-90017000D01*
X76558001Y-90017000D01*
X74690001Y-90017000D01*
X67549999Y-90017000D01*
X65681999Y-90017000D01*
X65427999Y-90017000D01*
X65407999Y-90017000D01*
X65407999Y-89763000D01*
X65427999Y-89763000D01*
X65427999Y-87798147D01*
X65681999Y-87798147D01*
X65681999Y-89763000D01*
X67549999Y-89763000D01*
X67549999Y-89503000D01*
X74690001Y-89503000D01*
X74690001Y-89763000D01*
X76558001Y-89763000D01*
X76558001Y-87798147D01*
X76812001Y-87798147D01*
X76812001Y-89763000D01*
X78680001Y-89763000D01*
X78680001Y-89503000D01*
X84290001Y-89503000D01*
X84290001Y-89763000D01*
X86158001Y-89763000D01*
X86158001Y-87798147D01*
X85848111Y-87683425D01*
X85638879Y-87738260D01*
X85282234Y-87900661D01*
X84964125Y-88129520D01*
X84696776Y-88416041D01*
X84490462Y-88749214D01*
X84353111Y-89116235D01*
X84290001Y-89503000D01*
X78680001Y-89503000D01*
X78616891Y-89116235D01*
X78479540Y-88749214D01*
X78273226Y-88416041D01*
X78005877Y-88129520D01*
X77687768Y-87900661D01*
X77331123Y-87738260D01*
X77121891Y-87683425D01*
X76812001Y-87798147D01*
X76558001Y-87798147D01*
X76248111Y-87683425D01*
X76038879Y-87738260D01*
X75682234Y-87900661D01*
X75364125Y-88129520D01*
X75096776Y-88416041D01*
X74890462Y-88749214D01*
X74753111Y-89116235D01*
X74690001Y-89503000D01*
X67549999Y-89503000D01*
X67486889Y-89116235D01*
X67349538Y-88749214D01*
X67143224Y-88416041D01*
X66875875Y-88129520D01*
X66557766Y-87900661D01*
X66201121Y-87738260D01*
X65991889Y-87683425D01*
X65681999Y-87798147D01*
X65427999Y-87798147D01*
X65118109Y-87683425D01*
X64908877Y-87738260D01*
X64552232Y-87900661D01*
X64234123Y-88129520D01*
X64139999Y-88230394D01*
X64139999Y-83928072D01*
X64154999Y-83928072D01*
X64279481Y-83915812D01*
X64399179Y-83879502D01*
X64509493Y-83820537D01*
X64606184Y-83741185D01*
X64685536Y-83644494D01*
X64744501Y-83534180D01*
X64780811Y-83414482D01*
X64793071Y-83290000D01*
X64793071Y-81490000D01*
X64780811Y-81365518D01*
X64744501Y-81245820D01*
X64736045Y-81229999D01*
X65621928Y-81229999D01*
X65621928Y-82829999D01*
X65634188Y-82954481D01*
X65670498Y-83074179D01*
X65729463Y-83184493D01*
X65808815Y-83281184D01*
X65905506Y-83360536D01*
X66015820Y-83419501D01*
X66135518Y-83455811D01*
X66260000Y-83468071D01*
X67860000Y-83468071D01*
X67984482Y-83455811D01*
X68104180Y-83419501D01*
X68214494Y-83360536D01*
X68311185Y-83281184D01*
X68390537Y-83184493D01*
X68449502Y-83074179D01*
X68485812Y-82954481D01*
X68498072Y-82829999D01*
X68498072Y-81229999D01*
X68485812Y-81105517D01*
X68449502Y-80985819D01*
X68390537Y-80875505D01*
X68311185Y-80778814D01*
X68214494Y-80699462D01*
X68104180Y-80640497D01*
X67984482Y-80604187D01*
X67860000Y-80591927D01*
X66260000Y-80591927D01*
X66135518Y-80604187D01*
X66015820Y-80640497D01*
X65905506Y-80699462D01*
X65808815Y-80778814D01*
X65729463Y-80875505D01*
X65670498Y-80985819D01*
X65634188Y-81105517D01*
X65621928Y-81229999D01*
X64736045Y-81229999D01*
X64685536Y-81135506D01*
X64606184Y-81038815D01*
X64509493Y-80959463D01*
X64399179Y-80900498D01*
X64279481Y-80864188D01*
X64154999Y-80851928D01*
X62354999Y-80851928D01*
X62230517Y-80864188D01*
X62110819Y-80900498D01*
X62000505Y-80959463D01*
X61903814Y-81038815D01*
X61824462Y-81135506D01*
X61771119Y-81235303D01*
X61733504Y-81197688D01*
X61482094Y-81029701D01*
X61202742Y-80913989D01*
X60906183Y-80855000D01*
X60603815Y-80855000D01*
X60307256Y-80913989D01*
X60027904Y-81029701D01*
X59776494Y-81197688D01*
X59562687Y-81411495D01*
X59504999Y-81497831D01*
X59447311Y-81411495D01*
X59233504Y-81197688D01*
X58982094Y-81029701D01*
X58702742Y-80913989D01*
X58406183Y-80855000D01*
X58103815Y-80855000D01*
X57807256Y-80913989D01*
X57527904Y-81029701D01*
X57276494Y-81197688D01*
X57062687Y-81411495D01*
X56894700Y-81662905D01*
X56778988Y-81942257D01*
X56719999Y-82238816D01*
X56719999Y-82541184D01*
X56778988Y-82837743D01*
X56894700Y-83117095D01*
X57062687Y-83368505D01*
X57276494Y-83582312D01*
X57527904Y-83750299D01*
X57807256Y-83866011D01*
X58103815Y-83925000D01*
X58406183Y-83925000D01*
X58702742Y-83866011D01*
X58982094Y-83750299D01*
X59233504Y-83582312D01*
X59447311Y-83368505D01*
X59504999Y-83282169D01*
X59562687Y-83368505D01*
X59776494Y-83582312D01*
X60027904Y-83750299D01*
X60307256Y-83866011D01*
X60603815Y-83925000D01*
X60906183Y-83925000D01*
X61202742Y-83866011D01*
X61482094Y-83750299D01*
X61733504Y-83582312D01*
X61771119Y-83544697D01*
X61824462Y-83644494D01*
X61903814Y-83741185D01*
X62000505Y-83820537D01*
X62110819Y-83879502D01*
X62230517Y-83915812D01*
X62354999Y-83928072D01*
X62369999Y-83928072D01*
X62370000Y-101228421D01*
X62014958Y-101583464D01*
X62014953Y-101583468D01*
X56484951Y-107113471D01*
X56451183Y-107141184D01*
X56423470Y-107174952D01*
X56423467Y-107174955D01*
X56340589Y-107275942D01*
X56258411Y-107429688D01*
X56207804Y-107596511D01*
X56190718Y-107770001D01*
X56145000Y-107770001D01*
X56145000Y-95686578D01*
X59419997Y-92411582D01*
X59424059Y-92409411D01*
X59558817Y-92298817D01*
X59669411Y-92164059D01*
X59751589Y-92010313D01*
X59802195Y-91843490D01*
X59815000Y-91713477D01*
X59819282Y-91670000D01*
X59815000Y-91626523D01*
X59815000Y-88193469D01*
X59819281Y-88150000D01*
X59815000Y-88106531D01*
X59815000Y-88106523D01*
X59802195Y-87976510D01*
X59751589Y-87809687D01*
X59669411Y-87655941D01*
X59640967Y-87621282D01*
X59586532Y-87554953D01*
X59586530Y-87554951D01*
X59558817Y-87521183D01*
X59525050Y-87493471D01*
X56415000Y-84383422D01*
X56415000Y-80746578D01*
X57036579Y-80125000D01*
X60096531Y-80125000D01*
X60140000Y-80129281D01*
X60183469Y-80125000D01*
X60183477Y-80125000D01*
X60313490Y-80112195D01*
X60480313Y-80061589D01*
X60634059Y-79979411D01*
X60768817Y-79868817D01*
X60796534Y-79835044D01*
X61350048Y-79281531D01*
X61383816Y-79253818D01*
X61436448Y-79189687D01*
X61494410Y-79119060D01*
X61503748Y-79101589D01*
X61576588Y-78965314D01*
X61627194Y-78798491D01*
X61639999Y-78668478D01*
X61639999Y-78668470D01*
X61644280Y-78625001D01*
X61639999Y-78581532D01*
X61639999Y-77834790D01*
X61733504Y-77772312D01*
X61947311Y-77558505D01*
X62004999Y-77472169D01*
X62062687Y-77558505D01*
X62276494Y-77772312D01*
X62527904Y-77940299D01*
X62807256Y-78056011D01*
X63103815Y-78115000D01*
X63406183Y-78115000D01*
X63702742Y-78056011D01*
X63982094Y-77940299D01*
X64233504Y-77772312D01*
X64447311Y-77558505D01*
X64615298Y-77307095D01*
X64731010Y-77027743D01*
X64758674Y-76888664D01*
X65625000Y-76888664D01*
X65625000Y-77171334D01*
X65680147Y-77448573D01*
X65788320Y-77709726D01*
X65945363Y-77944758D01*
X66145241Y-78144636D01*
X66380273Y-78301679D01*
X66641426Y-78409852D01*
X66918665Y-78464999D01*
X67201335Y-78464999D01*
X67478574Y-78409852D01*
X67739727Y-78301679D01*
X67974759Y-78144636D01*
X68174637Y-77944758D01*
X68331680Y-77709726D01*
X68439853Y-77448573D01*
X68495000Y-77171334D01*
X68495000Y-76888664D01*
X68439853Y-76611425D01*
X68331680Y-76350272D01*
X68174637Y-76115240D01*
X67974759Y-75915362D01*
X67739727Y-75758319D01*
X67478574Y-75650146D01*
X67201335Y-75594999D01*
X66918665Y-75594999D01*
X66641426Y-75650146D01*
X66380273Y-75758319D01*
X66145241Y-75915362D01*
X65945363Y-76115240D01*
X65788320Y-76350272D01*
X65680147Y-76611425D01*
X65625000Y-76888664D01*
X64758674Y-76888664D01*
X64789999Y-76731184D01*
X64789999Y-76428816D01*
X64731010Y-76132257D01*
X64615298Y-75852905D01*
X64447311Y-75601495D01*
X64233504Y-75387688D01*
X63982094Y-75219701D01*
X63702742Y-75103989D01*
X63406183Y-75045000D01*
X63103815Y-75045000D01*
X62807256Y-75103989D01*
X62527904Y-75219701D01*
X62276494Y-75387688D01*
X62062687Y-75601495D01*
X62004999Y-75687831D01*
X61947311Y-75601495D01*
X61733504Y-75387688D01*
X61482094Y-75219701D01*
X61202742Y-75103989D01*
X60906183Y-75045000D01*
X60603815Y-75045000D01*
X60307256Y-75103989D01*
X60027904Y-75219701D01*
X59776494Y-75387688D01*
X59738879Y-75425303D01*
X59685536Y-75325506D01*
X59606184Y-75228815D01*
X59509493Y-75149463D01*
X59399179Y-75090498D01*
X59279481Y-75054188D01*
X59154999Y-75041928D01*
X58540749Y-75045000D01*
X58381999Y-75203750D01*
X58381999Y-76453000D01*
X58401999Y-76453000D01*
X58401999Y-76707000D01*
X58381999Y-76707000D01*
X58381999Y-77956250D01*
X58540749Y-78115000D01*
X59154999Y-78118072D01*
X59279481Y-78105812D01*
X59399179Y-78069502D01*
X59509493Y-78010537D01*
X59606184Y-77931185D01*
X59685536Y-77834494D01*
X59738879Y-77734697D01*
X59776494Y-77772312D01*
X59870000Y-77834791D01*
X59870000Y-78258422D01*
X59773422Y-78355000D01*
X56713465Y-78355000D01*
X56669999Y-78350719D01*
X56626533Y-78355000D01*
X56626523Y-78355000D01*
X56496510Y-78367805D01*
X56329687Y-78418411D01*
X56175941Y-78500589D01*
X56175939Y-78500590D01*
X56175940Y-78500590D01*
X56074953Y-78583468D01*
X56074951Y-78583470D01*
X56041183Y-78611183D01*
X56013470Y-78644951D01*
X55280000Y-79378422D01*
X55280000Y-77480000D01*
X56716927Y-77480000D01*
X56729187Y-77604482D01*
X56765497Y-77724180D01*
X56824462Y-77834494D01*
X56903814Y-77931185D01*
X57000505Y-78010537D01*
X57110819Y-78069502D01*
X57230517Y-78105812D01*
X57354999Y-78118072D01*
X57969249Y-78115000D01*
X58127999Y-77956250D01*
X58127999Y-76707000D01*
X56878749Y-76707000D01*
X56719999Y-76865750D01*
X56716927Y-77480000D01*
X55280000Y-77480000D01*
X55280000Y-75680000D01*
X56716927Y-75680000D01*
X56719999Y-76294250D01*
X56878749Y-76453000D01*
X58127999Y-76453000D01*
X58127999Y-75203750D01*
X57969249Y-75045000D01*
X57354999Y-75041928D01*
X57230517Y-75054188D01*
X57110819Y-75090498D01*
X57000505Y-75149463D01*
X56903814Y-75228815D01*
X56824462Y-75325506D01*
X56765497Y-75435820D01*
X56729187Y-75555518D01*
X56716927Y-75680000D01*
X55280000Y-75680000D01*
X55280000Y-71218591D01*
X55308877Y-71231740D01*
X55518109Y-71286575D01*
X55827999Y-71171853D01*
X55827999Y-69207000D01*
X56081999Y-69207000D01*
X56081999Y-71171853D01*
X56391889Y-71286575D01*
X56601121Y-71231740D01*
X56957766Y-71069339D01*
X57275875Y-70840480D01*
X57543224Y-70553959D01*
X57749538Y-70220786D01*
X57886889Y-69853765D01*
X57949999Y-69467000D01*
X57949999Y-69207000D01*
X63559999Y-69207000D01*
X63559999Y-69467000D01*
X63623109Y-69853765D01*
X63760460Y-70220786D01*
X63966774Y-70553959D01*
X64234123Y-70840480D01*
X64552232Y-71069339D01*
X64908877Y-71231740D01*
X65118109Y-71286575D01*
X65427999Y-71171853D01*
X65427999Y-69207000D01*
X65681999Y-69207000D01*
X65681999Y-71171853D01*
X65991889Y-71286575D01*
X66201121Y-71231740D01*
X66557766Y-71069339D01*
X66875875Y-70840480D01*
X67143224Y-70553959D01*
X67349538Y-70220786D01*
X67486889Y-69853765D01*
X67549999Y-69467000D01*
X67549999Y-69207000D01*
X65681999Y-69207000D01*
X65427999Y-69207000D01*
X63559999Y-69207000D01*
X57949999Y-69207000D01*
X56081999Y-69207000D01*
X55827999Y-69207000D01*
X55807999Y-69207000D01*
X55807999Y-68953000D01*
X55827999Y-68953000D01*
X55827999Y-66988147D01*
X56081999Y-66988147D01*
X56081999Y-68953000D01*
X57949999Y-68953000D01*
X57949999Y-68693000D01*
X63559999Y-68693000D01*
X63559999Y-68953000D01*
X65427999Y-68953000D01*
X65427999Y-66988147D01*
X65681999Y-66988147D01*
X65681999Y-68953000D01*
X67549999Y-68953000D01*
X67549999Y-68693000D01*
X67486889Y-68306235D01*
X67349538Y-67939214D01*
X67143224Y-67606041D01*
X66875875Y-67319520D01*
X66557766Y-67090661D01*
X66201121Y-66928260D01*
X65991889Y-66873425D01*
X65681999Y-66988147D01*
X65427999Y-66988147D01*
X65118109Y-66873425D01*
X64908877Y-66928260D01*
X64552232Y-67090661D01*
X64234123Y-67319520D01*
X63966774Y-67606041D01*
X63760460Y-67939214D01*
X63623109Y-68306235D01*
X63559999Y-68693000D01*
X57949999Y-68693000D01*
X57886889Y-68306235D01*
X57749538Y-67939214D01*
X57543224Y-67606041D01*
X57275875Y-67319520D01*
X56957766Y-67090661D01*
X56601121Y-66928260D01*
X56391889Y-66873425D01*
X56081999Y-66988147D01*
X55827999Y-66988147D01*
X55518109Y-66873425D01*
X55308877Y-66928260D01*
X55280000Y-66941409D01*
X55280000Y-65420000D01*
X68381928Y-65420000D01*
X68381928Y-67120000D01*
X68394188Y-67244482D01*
X68430498Y-67364180D01*
X68489463Y-67474494D01*
X68568815Y-67571185D01*
X68665506Y-67650537D01*
X68775820Y-67709502D01*
X68895518Y-67745812D01*
X69020000Y-67758072D01*
X69140001Y-67758072D01*
X69140000Y-68778588D01*
X69053169Y-68884392D01*
X68975722Y-69029284D01*
X68928031Y-69186500D01*
X68911928Y-69350000D01*
X68911928Y-69750000D01*
X68928031Y-69913500D01*
X68975722Y-70070716D01*
X69053169Y-70215608D01*
X69157394Y-70342606D01*
X69196866Y-70375000D01*
X69157394Y-70407394D01*
X69053169Y-70534392D01*
X68975722Y-70679284D01*
X68928031Y-70836500D01*
X68911928Y-71000000D01*
X68911928Y-71400000D01*
X68928031Y-71563500D01*
X68975722Y-71720716D01*
X69053169Y-71865608D01*
X69135001Y-71965320D01*
X69135000Y-73560446D01*
X69060713Y-73634733D01*
X68925557Y-73837008D01*
X68832460Y-74061764D01*
X68785000Y-74300363D01*
X68785000Y-74543637D01*
X68832460Y-74782236D01*
X68925557Y-75006992D01*
X69060713Y-75209267D01*
X69135001Y-75283555D01*
X69135000Y-81441493D01*
X69130719Y-81484962D01*
X69135000Y-81528431D01*
X69135000Y-81528438D01*
X69147805Y-81658451D01*
X69198411Y-81825274D01*
X69280589Y-81979020D01*
X69391183Y-82113779D01*
X69424956Y-82141496D01*
X70235001Y-82951542D01*
X70235001Y-83365571D01*
X70141637Y-83347000D01*
X69898363Y-83347000D01*
X69659764Y-83394460D01*
X69435008Y-83487557D01*
X69232733Y-83622713D01*
X69060713Y-83794733D01*
X68925557Y-83997008D01*
X68832460Y-84221764D01*
X68785000Y-84460363D01*
X68785000Y-84703637D01*
X68832460Y-84942236D01*
X68925557Y-85166992D01*
X69060713Y-85369267D01*
X69135001Y-85443555D01*
X69135001Y-86092523D01*
X69130719Y-86136002D01*
X69147805Y-86309492D01*
X69198412Y-86476315D01*
X69280590Y-86630061D01*
X69363468Y-86731048D01*
X69363471Y-86731051D01*
X69391184Y-86764819D01*
X69424951Y-86792531D01*
X69959469Y-87327050D01*
X69987182Y-87360818D01*
X70020950Y-87388531D01*
X70020952Y-87388533D01*
X70121939Y-87471411D01*
X70121940Y-87471412D01*
X70275686Y-87553590D01*
X70442509Y-87604196D01*
X70572522Y-87617001D01*
X70572530Y-87617001D01*
X70615999Y-87621282D01*
X70659468Y-87617001D01*
X73484530Y-87617001D01*
X73527999Y-87621282D01*
X73571468Y-87617001D01*
X73571476Y-87617001D01*
X73701489Y-87604196D01*
X73868312Y-87553590D01*
X74022058Y-87471412D01*
X74156816Y-87360818D01*
X74184533Y-87327045D01*
X76886578Y-84625001D01*
X79589533Y-84625001D01*
X79633002Y-84629282D01*
X79676471Y-84625001D01*
X79676479Y-84625001D01*
X79806492Y-84612196D01*
X79973315Y-84561590D01*
X80127061Y-84479412D01*
X80261819Y-84368818D01*
X80289536Y-84335045D01*
X80840196Y-83784385D01*
X81037258Y-83866011D01*
X81333817Y-83925000D01*
X81636185Y-83925000D01*
X81932744Y-83866011D01*
X82212096Y-83750299D01*
X82463506Y-83582312D01*
X82501121Y-83544697D01*
X82554464Y-83644494D01*
X82633816Y-83741185D01*
X82730507Y-83820537D01*
X82840821Y-83879502D01*
X82960519Y-83915812D01*
X83085001Y-83928072D01*
X84885001Y-83928072D01*
X85009483Y-83915812D01*
X85129181Y-83879502D01*
X85239495Y-83820537D01*
X85336186Y-83741185D01*
X85415538Y-83644494D01*
X85474503Y-83534180D01*
X85510813Y-83414482D01*
X85523073Y-83290000D01*
X85523073Y-81490000D01*
X85510813Y-81365518D01*
X85474503Y-81245820D01*
X85415538Y-81135506D01*
X85336186Y-81038815D01*
X85239495Y-80959463D01*
X85129181Y-80900498D01*
X85009483Y-80864188D01*
X84885001Y-80851928D01*
X83085001Y-80851928D01*
X82960519Y-80864188D01*
X82840821Y-80900498D01*
X82730507Y-80959463D01*
X82633816Y-81038815D01*
X82554464Y-81135506D01*
X82501121Y-81235303D01*
X82463506Y-81197688D01*
X82212096Y-81029701D01*
X81932744Y-80913989D01*
X81636185Y-80855000D01*
X81333817Y-80855000D01*
X81037258Y-80913989D01*
X80757906Y-81029701D01*
X80506496Y-81197688D01*
X80292689Y-81411495D01*
X80235001Y-81497831D01*
X80177313Y-81411495D01*
X79963506Y-81197688D01*
X79712096Y-81029701D01*
X79432744Y-80913989D01*
X79136185Y-80855000D01*
X78833817Y-80855000D01*
X78537258Y-80913989D01*
X78257906Y-81029701D01*
X78006496Y-81197688D01*
X77792689Y-81411495D01*
X77624702Y-81662905D01*
X77508990Y-81942257D01*
X77450001Y-82238816D01*
X77450001Y-82541184D01*
X77508990Y-82837743D01*
X77516139Y-82855001D01*
X76563468Y-82855001D01*
X76519999Y-82850720D01*
X76476530Y-82855001D01*
X76476522Y-82855001D01*
X76361305Y-82866349D01*
X76346508Y-82867806D01*
X76295902Y-82883158D01*
X76179686Y-82918412D01*
X76025940Y-83000590D01*
X76025938Y-83000591D01*
X76025939Y-83000591D01*
X75924952Y-83083469D01*
X75924950Y-83083471D01*
X75891182Y-83111184D01*
X75863469Y-83144952D01*
X73161421Y-85847001D01*
X72346374Y-85847001D01*
X72352783Y-85814783D01*
X72580236Y-85769540D01*
X72804992Y-85676443D01*
X73007267Y-85541287D01*
X73179287Y-85369267D01*
X73314443Y-85166992D01*
X73407540Y-84942236D01*
X73455000Y-84703637D01*
X73455000Y-84460363D01*
X73407540Y-84221764D01*
X73314443Y-83997008D01*
X73179287Y-83794733D01*
X73105000Y-83720446D01*
X73105000Y-83171578D01*
X75861579Y-80415000D01*
X82151531Y-80415000D01*
X82195000Y-80419281D01*
X82238469Y-80415000D01*
X82238477Y-80415000D01*
X82368490Y-80402195D01*
X82535313Y-80351589D01*
X82689059Y-80269411D01*
X82823817Y-80158817D01*
X82851534Y-80125044D01*
X84580051Y-78396528D01*
X84613818Y-78368816D01*
X84668917Y-78301679D01*
X84724412Y-78234058D01*
X84806590Y-78080313D01*
X84857196Y-77913489D01*
X84859944Y-77885590D01*
X84864591Y-77838405D01*
X84963506Y-77772312D01*
X85177313Y-77558505D01*
X85345300Y-77307095D01*
X85461012Y-77027743D01*
X85520001Y-76731184D01*
X85520001Y-76428816D01*
X85461012Y-76132257D01*
X85345300Y-75852905D01*
X85177313Y-75601495D01*
X84963506Y-75387688D01*
X84712096Y-75219701D01*
X84432744Y-75103989D01*
X84136185Y-75045000D01*
X83833817Y-75045000D01*
X83537258Y-75103989D01*
X83257906Y-75219701D01*
X83006496Y-75387688D01*
X82792689Y-75601495D01*
X82735001Y-75687831D01*
X82677313Y-75601495D01*
X82463506Y-75387688D01*
X82212096Y-75219701D01*
X81932744Y-75103989D01*
X81636185Y-75045000D01*
X81333817Y-75045000D01*
X81037258Y-75103989D01*
X80757906Y-75219701D01*
X80506496Y-75387688D01*
X80468881Y-75425303D01*
X80415538Y-75325506D01*
X80336186Y-75228815D01*
X80239495Y-75149463D01*
X80129181Y-75090498D01*
X80009483Y-75054188D01*
X79885001Y-75041928D01*
X79270751Y-75045000D01*
X79112001Y-75203750D01*
X79112001Y-76453000D01*
X79132001Y-76453000D01*
X79132001Y-76707000D01*
X79112001Y-76707000D01*
X79112001Y-77956250D01*
X79270751Y-78115000D01*
X79885001Y-78118072D01*
X80009483Y-78105812D01*
X80129181Y-78069502D01*
X80239495Y-78010537D01*
X80336186Y-77931185D01*
X80415538Y-77834494D01*
X80468881Y-77734697D01*
X80506496Y-77772312D01*
X80757906Y-77940299D01*
X81037258Y-78056011D01*
X81333817Y-78115000D01*
X81636185Y-78115000D01*
X81932744Y-78056011D01*
X82212096Y-77940299D01*
X82463506Y-77772312D01*
X82677313Y-77558505D01*
X82735001Y-77472169D01*
X82792689Y-77558505D01*
X82853803Y-77619619D01*
X81828422Y-78645000D01*
X75594239Y-78645000D01*
X75500000Y-78635719D01*
X75326510Y-78652805D01*
X75159686Y-78703411D01*
X75005941Y-78785589D01*
X74904953Y-78868468D01*
X74877067Y-78896354D01*
X74871183Y-78901183D01*
X74866354Y-78907067D01*
X72275000Y-81498422D01*
X72005000Y-81228422D01*
X72005000Y-81126411D01*
X72091831Y-81020608D01*
X72169278Y-80875716D01*
X72216969Y-80718500D01*
X72233072Y-80555000D01*
X72233072Y-80155000D01*
X72216969Y-79991500D01*
X72169278Y-79834284D01*
X72091831Y-79689392D01*
X71987606Y-79562394D01*
X71948134Y-79530000D01*
X71987606Y-79497606D01*
X72091831Y-79370608D01*
X72169278Y-79225716D01*
X72216969Y-79068500D01*
X72233072Y-78905000D01*
X72233072Y-78505000D01*
X72218299Y-78355000D01*
X73781546Y-78355000D01*
X73829744Y-78387205D01*
X74018102Y-78465226D01*
X74218061Y-78505000D01*
X74421939Y-78505000D01*
X74621898Y-78465226D01*
X74810256Y-78387205D01*
X74979774Y-78273937D01*
X75123937Y-78129774D01*
X75237205Y-77960256D01*
X75315226Y-77771898D01*
X75355000Y-77571939D01*
X75355000Y-77480000D01*
X77446929Y-77480000D01*
X77459189Y-77604482D01*
X77495499Y-77724180D01*
X77554464Y-77834494D01*
X77633816Y-77931185D01*
X77730507Y-78010537D01*
X77840821Y-78069502D01*
X77960519Y-78105812D01*
X78085001Y-78118072D01*
X78699251Y-78115000D01*
X78858001Y-77956250D01*
X78858001Y-76707000D01*
X77608751Y-76707000D01*
X77450001Y-76865750D01*
X77446929Y-77480000D01*
X75355000Y-77480000D01*
X75355000Y-77368061D01*
X75315226Y-77168102D01*
X75237205Y-76979744D01*
X75123937Y-76810226D01*
X74979774Y-76666063D01*
X74810256Y-76552795D01*
X74621898Y-76474774D01*
X74421939Y-76435000D01*
X74218061Y-76435000D01*
X74018102Y-76474774D01*
X73829744Y-76552795D01*
X73781546Y-76585000D01*
X72005000Y-76585000D01*
X72005000Y-76383554D01*
X72079287Y-76309267D01*
X72214443Y-76106992D01*
X72307540Y-75882236D01*
X72347766Y-75680000D01*
X77446929Y-75680000D01*
X77450001Y-76294250D01*
X77608751Y-76453000D01*
X78858001Y-76453000D01*
X78858001Y-75203750D01*
X78699251Y-75045000D01*
X78085001Y-75041928D01*
X77960519Y-75054188D01*
X77840821Y-75090498D01*
X77730507Y-75149463D01*
X77633816Y-75228815D01*
X77554464Y-75325506D01*
X77495499Y-75435820D01*
X77459189Y-75555518D01*
X77446929Y-75680000D01*
X72347766Y-75680000D01*
X72355000Y-75643637D01*
X72355000Y-75496903D01*
X72537610Y-75615467D01*
X72764341Y-75530572D01*
X72970153Y-75403075D01*
X73147137Y-75237876D01*
X73288492Y-75041324D01*
X73388785Y-74820971D01*
X73413462Y-74739609D01*
X73288731Y-74549000D01*
X72347000Y-74549000D01*
X72347000Y-74569000D01*
X72093000Y-74569000D01*
X72093000Y-74549000D01*
X72073000Y-74549000D01*
X72073000Y-74295000D01*
X72093000Y-74295000D01*
X72093000Y-73352291D01*
X72347000Y-73352291D01*
X72347000Y-74295000D01*
X73288731Y-74295000D01*
X73413462Y-74104391D01*
X73388785Y-74023029D01*
X73288492Y-73802676D01*
X73147137Y-73606124D01*
X72970153Y-73440925D01*
X72764341Y-73313428D01*
X72537610Y-73228533D01*
X72347000Y-73352291D01*
X72093000Y-73352291D01*
X71902390Y-73228533D01*
X71675659Y-73313428D01*
X71469847Y-73440925D01*
X71292863Y-73606124D01*
X71151508Y-73802676D01*
X71124658Y-73861669D01*
X71114443Y-73837008D01*
X70979287Y-73634733D01*
X70905000Y-73560446D01*
X70905000Y-71977504D01*
X70996831Y-71865608D01*
X71074278Y-71720716D01*
X71121969Y-71563500D01*
X71138072Y-71400000D01*
X71138072Y-71000000D01*
X71121969Y-70836500D01*
X71074278Y-70679284D01*
X70996831Y-70534392D01*
X70892606Y-70407394D01*
X70853134Y-70375000D01*
X70892606Y-70342606D01*
X70996831Y-70215608D01*
X71074278Y-70070716D01*
X71121969Y-69913500D01*
X71138072Y-69750000D01*
X71138072Y-69350000D01*
X71123989Y-69207000D01*
X74690001Y-69207000D01*
X74690001Y-69467000D01*
X74753111Y-69853765D01*
X74890462Y-70220786D01*
X75096776Y-70553959D01*
X75364125Y-70840480D01*
X75682234Y-71069339D01*
X76038879Y-71231740D01*
X76248111Y-71286575D01*
X76558001Y-71171853D01*
X76558001Y-69207000D01*
X76812001Y-69207000D01*
X76812001Y-71171853D01*
X77121891Y-71286575D01*
X77331123Y-71231740D01*
X77687768Y-71069339D01*
X78005877Y-70840480D01*
X78273226Y-70553959D01*
X78479540Y-70220786D01*
X78616891Y-69853765D01*
X78680001Y-69467000D01*
X78680001Y-69207000D01*
X84290001Y-69207000D01*
X84290001Y-69467000D01*
X84353111Y-69853765D01*
X84490462Y-70220786D01*
X84696776Y-70553959D01*
X84964125Y-70840480D01*
X85282234Y-71069339D01*
X85638879Y-71231740D01*
X85848111Y-71286575D01*
X86158001Y-71171853D01*
X86158001Y-69207000D01*
X84290001Y-69207000D01*
X78680001Y-69207000D01*
X76812001Y-69207000D01*
X76558001Y-69207000D01*
X74690001Y-69207000D01*
X71123989Y-69207000D01*
X71121969Y-69186500D01*
X71074278Y-69029284D01*
X70996831Y-68884392D01*
X70910000Y-68778589D01*
X70910000Y-68693000D01*
X74690001Y-68693000D01*
X74690001Y-68953000D01*
X76558001Y-68953000D01*
X76558001Y-66988147D01*
X76812001Y-66988147D01*
X76812001Y-68953000D01*
X78680001Y-68953000D01*
X78680001Y-68693000D01*
X84290001Y-68693000D01*
X84290001Y-68953000D01*
X86158001Y-68953000D01*
X86158001Y-66988147D01*
X85848111Y-66873425D01*
X85638879Y-66928260D01*
X85282234Y-67090661D01*
X84964125Y-67319520D01*
X84696776Y-67606041D01*
X84490462Y-67939214D01*
X84353111Y-68306235D01*
X84290001Y-68693000D01*
X78680001Y-68693000D01*
X78616891Y-68306235D01*
X78479540Y-67939214D01*
X78273226Y-67606041D01*
X78005877Y-67319520D01*
X77687768Y-67090661D01*
X77331123Y-66928260D01*
X77121891Y-66873425D01*
X76812001Y-66988147D01*
X76558001Y-66988147D01*
X76248111Y-66873425D01*
X76038879Y-66928260D01*
X75682234Y-67090661D01*
X75364125Y-67319520D01*
X75096776Y-67606041D01*
X74890462Y-67939214D01*
X74753111Y-68306235D01*
X74690001Y-68693000D01*
X70910000Y-68693000D01*
X70910000Y-67725937D01*
X70964180Y-67709502D01*
X71074494Y-67650537D01*
X71171185Y-67571185D01*
X71250537Y-67474494D01*
X71309502Y-67364180D01*
X71333966Y-67283534D01*
X71409731Y-67367588D01*
X71643080Y-67541641D01*
X71905901Y-67666825D01*
X72053110Y-67711476D01*
X72283000Y-67590155D01*
X72283000Y-66397000D01*
X72537000Y-66397000D01*
X72537000Y-67590155D01*
X72766890Y-67711476D01*
X72914099Y-67666825D01*
X73176920Y-67541641D01*
X73410269Y-67367588D01*
X73605178Y-67151355D01*
X73754157Y-66901252D01*
X73851481Y-66626891D01*
X73730814Y-66397000D01*
X72537000Y-66397000D01*
X72283000Y-66397000D01*
X72263000Y-66397000D01*
X72263000Y-66143000D01*
X72283000Y-66143000D01*
X72283000Y-64949845D01*
X72537000Y-64949845D01*
X72537000Y-66143000D01*
X73730814Y-66143000D01*
X73851481Y-65913109D01*
X73754157Y-65638748D01*
X73605178Y-65388645D01*
X73410269Y-65172412D01*
X73176920Y-64998359D01*
X72914099Y-64873175D01*
X72766890Y-64828524D01*
X72537000Y-64949845D01*
X72283000Y-64949845D01*
X72053110Y-64828524D01*
X71905901Y-64873175D01*
X71643080Y-64998359D01*
X71409731Y-65172412D01*
X71333966Y-65256466D01*
X71309502Y-65175820D01*
X71250537Y-65065506D01*
X71171185Y-64968815D01*
X71074494Y-64889463D01*
X70964180Y-64830498D01*
X70844482Y-64794188D01*
X70720000Y-64781928D01*
X69020000Y-64781928D01*
X68895518Y-64794188D01*
X68775820Y-64830498D01*
X68665506Y-64889463D01*
X68568815Y-64968815D01*
X68489463Y-65065506D01*
X68430498Y-65175820D01*
X68394188Y-65295518D01*
X68381928Y-65420000D01*
X55280000Y-65420000D01*
X55280000Y-63690000D01*
X56902419Y-63690000D01*
X56932753Y-63687012D01*
X56957743Y-63687187D01*
X56966914Y-63686287D01*
X57743302Y-63604685D01*
X57801871Y-63592662D01*
X57860657Y-63581449D01*
X57869479Y-63578785D01*
X58615229Y-63347937D01*
X58670359Y-63324762D01*
X58725838Y-63302348D01*
X58733974Y-63298021D01*
X59420684Y-62926718D01*
X59470268Y-62893273D01*
X59520331Y-62860513D01*
X59527472Y-62854689D01*
X60128983Y-62357076D01*
X60171140Y-62314624D01*
X60213873Y-62272777D01*
X60219741Y-62265682D01*
X60219747Y-62265676D01*
X60219751Y-62265669D01*
X60713148Y-61660706D01*
X60746230Y-61610913D01*
X60780048Y-61561524D01*
X60784430Y-61553417D01*
X61150930Y-60864133D01*
X61173729Y-60808818D01*
X61197290Y-60753846D01*
X61200015Y-60745043D01*
X61425652Y-59997698D01*
X61437277Y-59938989D01*
X61449708Y-59880506D01*
X61450671Y-59871341D01*
X61526850Y-59094404D01*
X61526850Y-59094402D01*
X61530000Y-59062419D01*
X61530000Y-57440000D01*
X80710001Y-57440000D01*
X80710000Y-59062418D01*
G37*
%TD.AperFunction*%
D24*
X58045000Y-88516579D02*
X58045001Y-91283420D01*
X55280000Y-94048422D01*
X55280000Y-92028591D01*
X55308877Y-92041740D01*
X55518109Y-92096575D01*
X55827999Y-91981853D01*
X55827999Y-90017000D01*
X56081999Y-90017000D01*
X56081999Y-91981853D01*
X56391889Y-92096575D01*
X56601121Y-92041740D01*
X56957766Y-91879339D01*
X57275875Y-91650480D01*
X57543224Y-91363959D01*
X57749538Y-91030786D01*
X57886889Y-90663765D01*
X57949999Y-90277000D01*
X57949999Y-90017000D01*
X56081999Y-90017000D01*
X55827999Y-90017000D01*
X55807999Y-90017000D01*
X55807999Y-89763000D01*
X55827999Y-89763000D01*
X55827999Y-87798147D01*
X56081999Y-87798147D01*
X56081999Y-89763000D01*
X57949999Y-89763000D01*
X57949999Y-89503000D01*
X57886889Y-89116235D01*
X57749538Y-88749214D01*
X57543224Y-88416041D01*
X57275875Y-88129520D01*
X56957766Y-87900661D01*
X56601121Y-87738260D01*
X56391889Y-87683425D01*
X56081999Y-87798147D01*
X55827999Y-87798147D01*
X55518109Y-87683425D01*
X55308877Y-87738260D01*
X55280000Y-87751409D01*
X55280000Y-85751578D01*
X58045000Y-88516579D01*
%TA.AperFunction,Conductor*%
D25*
G36*
X58045000Y-88516579D02*
G01*
X58045001Y-91283420D01*
X55280000Y-94048422D01*
X55280000Y-92028591D01*
X55308877Y-92041740D01*
X55518109Y-92096575D01*
X55827999Y-91981853D01*
X55827999Y-90017000D01*
X56081999Y-90017000D01*
X56081999Y-91981853D01*
X56391889Y-92096575D01*
X56601121Y-92041740D01*
X56957766Y-91879339D01*
X57275875Y-91650480D01*
X57543224Y-91363959D01*
X57749538Y-91030786D01*
X57886889Y-90663765D01*
X57949999Y-90277000D01*
X57949999Y-90017000D01*
X56081999Y-90017000D01*
X55827999Y-90017000D01*
X55807999Y-90017000D01*
X55807999Y-89763000D01*
X55827999Y-89763000D01*
X55827999Y-87798147D01*
X56081999Y-87798147D01*
X56081999Y-89763000D01*
X57949999Y-89763000D01*
X57949999Y-89503000D01*
X57886889Y-89116235D01*
X57749538Y-88749214D01*
X57543224Y-88416041D01*
X57275875Y-88129520D01*
X56957766Y-87900661D01*
X56601121Y-87738260D01*
X56391889Y-87683425D01*
X56081999Y-87798147D01*
X55827999Y-87798147D01*
X55518109Y-87683425D01*
X55308877Y-87738260D01*
X55280000Y-87751409D01*
X55280000Y-85751578D01*
X58045000Y-88516579D01*
G37*
%TD.AperFunction*%
%TD*%
M02*
