M48
; DRILL file {KiCad (5.1.10)-1} date 10/05/21 10:10:43
; FORMAT={-:-/ absolute / inch / decimal}
; #@! TF.CreationDate,2021-10-05T10:10:43+02:00
; #@! TF.GenerationSoftware,Kicad,Pcbnew,(5.1.10)-1
; #@! TF.FileFunction,Plated,1,2,PTH
FMAT,2
INCH
T1C0.0157
T2C0.0276
T3C0.0315
T4C0.0394
T5C0.0433
T6C0.0472
T7C0.0591
%
G90
G05
T1
X4.8917Y-1.0659
X4.997Y-1.7835
X5.0531Y-1.4291
X5.0866Y-1.7677
T2
X4.4945Y-2.6906
X4.4945Y-3.0843
X4.5945Y-2.5906
X4.5945Y-2.7906
X4.5945Y-2.9843
X4.5945Y-3.1843
T3
X4.4425Y-1.8858
X4.6886Y-1.2165
X4.689Y-1.0984
X4.8425Y-1.8858
X4.99Y-1.66
X4.99Y-2.06
X5.0472Y-2.1535
X5.0472Y-2.5472
X5.05Y-1.33
X5.05Y-1.5269
X5.0886Y-1.2165
X5.089Y-1.0984
X5.11Y-1.66
X5.11Y-2.06
X5.2559Y-1.8858
X5.3563Y-1.1083
X5.3563Y-1.2067
X5.6559Y-1.8858
T4
X4.8953Y-1.4306
X4.8953Y-1.529
X4.8953Y-1.6274
X4.8953Y-2.1426
X4.8953Y-2.241
X4.8953Y-2.3394
X5.2008Y-2.1406
X5.2008Y-2.239
X5.2008Y-2.3374
X5.2047Y-1.4306
X5.2047Y-1.529
X5.2047Y-1.6274
X5.5093Y-4.126
X5.6093Y-4.126
T7
X4.5669Y-3.3622
X4.5669Y-3.8122
X4.8169Y-3.3622
X4.8169Y-3.8122
X5.0295Y-2.7047
X5.0295Y-3.1547
X5.0669Y-3.3622
X5.0669Y-3.8122
X5.2795Y-2.7047
X5.2795Y-3.1547
X5.5295Y-2.7047
X5.5295Y-3.1547
T4
G00X5.2372Y-1.0935
M15
G01X5.19Y-1.0935
M16
G05
G00X5.2372Y-1.2904
M15
G01X5.19Y-1.2904
M16
G05
T5
G00X4.6138Y-1.34
M15
G01X4.5862Y-1.34
M16
G05
G00X4.6138Y-1.718
M15
G01X4.5862Y-1.718
M16
G05
G00X4.6138Y-2.052
M15
G01X4.5862Y-2.052
M16
G05
G00X4.6138Y-2.43
M15
G01X4.5862Y-2.43
M16
G05
G00X5.4823Y-2.05
M15
G01X5.5098Y-2.05
M16
G05
G00X5.4823Y-2.428
M15
G01X5.5098Y-2.428
M16
G05
G00X5.4862Y-1.34
M15
G01X5.5138Y-1.34
M16
G05
G00X5.4862Y-1.718
M15
G01X5.5138Y-1.718
M16
G05
T6
G00X4.8158Y-4.0
M15
G01X4.867Y-4.0
M16
G05
G00X4.8158Y-4.19
M15
G01X4.867Y-4.19
M16
G05
G00X4.8158Y-4.38
M15
G01X4.867Y-4.38
M16
G05
G00X5.0258Y-4.0
M15
G01X5.077Y-4.0
M16
G05
G00X5.0258Y-4.19
M15
G01X5.077Y-4.19
M16
G05
G00X5.0258Y-4.38
M15
G01X5.077Y-4.38
M16
G05
G00X5.2358Y-4.0
M15
G01X5.287Y-4.0
M16
G05
G00X5.2358Y-4.19
M15
G01X5.287Y-4.19
M16
G05
G00X5.2358Y-4.38
M15
G01X5.287Y-4.38
M16
G05
T0
M30
