M48
; DRILL file {KiCad (5.1.10)-1} date 10/11/21 13:20:52
; FORMAT={-:-/ absolute / inch / decimal}
; #@! TF.CreationDate,2021-10-11T13:20:52+02:00
; #@! TF.GenerationSoftware,Kicad,Pcbnew,(5.1.10)-1
; #@! TF.FileFunction,Plated,1,2,PTH
FMAT,2
INCH
T1C0.0157
T2C0.0276
T3C0.0315
T4C0.0394
T5C0.0433
T6C0.0591
%
G90
G05
T1
X2.926Y-3.05
T2
X2.3122Y-5.115
X2.3122Y-5.2256
X2.3122Y-5.3362
X2.7567Y-2.93
X2.7567Y-3.33
X2.8Y-2.9733
X2.8Y-3.3733
X2.8433Y-2.93
X2.8433Y-3.33
X3.2831Y-5.2256
X3.2831Y-5.3362
X3.327Y-5.1159
T3
X2.6402Y-3.0327
X2.6402Y-3.2295
T4
X2.2935Y-3.015
X2.2935Y-3.2437
X2.3919Y-3.015
X2.3919Y-3.2437
X2.4904Y-3.015
X2.4904Y-3.2437
X2.7508Y-2.6091
X2.8508Y-2.6091
X3.1096Y-3.015
X3.1096Y-3.2437
X3.2081Y-3.015
X3.2081Y-3.2437
X3.3065Y-3.015
X3.3065Y-3.2437
X3.4006Y-5.2256
X3.4026Y-5.3362
T6
X2.324Y-4.4287
X2.324Y-4.8787
X2.574Y-4.4287
X2.574Y-4.8787
X2.7752Y-3.774
X2.7752Y-4.224
X2.824Y-4.4287
X2.824Y-4.8787
X3.0252Y-3.774
X3.0252Y-4.224
X3.2752Y-3.774
X3.2752Y-4.224
T5
G00X2.203Y-2.7335
M15
G01X2.203Y-2.7059
M16
G05
G00X2.203Y-3.5252
M15
G01X2.203Y-3.5528
M16
G05
G00X2.5809Y-2.7335
M15
G01X2.5809Y-2.7059
M16
G05
G00X2.5809Y-3.5252
M15
G01X2.5809Y-3.5528
M16
G05
G00X3.0191Y-2.7335
M15
G01X3.0191Y-2.7059
M16
G05
G00X3.0191Y-3.5252
M15
G01X3.0191Y-3.5528
M16
G05
G00X3.397Y-2.7335
M15
G01X3.397Y-2.7059
M16
G05
G00X3.397Y-3.5252
M15
G01X3.397Y-3.5528
M16
G05
T0
M30
